<svg width="32" height="34" viewBox="0 0 32 34" fill="none" xmlns="http://www.w3.org/2000/svg">
<path d="M17.053 4.99739C17.053 4.99739 12.5051 2.09253 12.1261 2.09253C11.7472 2.09253 2.27217 11.565 2.14587 12.0702C2.01956 12.5754 1.8932 25.4581 2.14587 25.9633C2.39853 26.4685 10.4838 32.152 10.6101 31.8994C10.7364 31.6468 10.3575 18.6378 10.6101 18.0063C10.8628 17.3748 20.4641 7.90234 20.7167 7.90234C20.9693 7.90234 30.4443 14.3436 30.5706 14.7225C30.697 15.1014 30.8234 27.8578 30.5706 27.9841C30.3179 28.1104 22.1063 22.3006 21.98 22.048C21.8538 21.7954 21.98 13.9647 21.98 13.9647" stroke="#024B59" stroke-width="2.51074" stroke-linecap="round"/>
</svg>
