<?xml version="1.0" encoding="UTF-8"?>
<svg id="contratos" xmlns="http://www.w3.org/2000/svg" width="25" height="25" viewBox="0 0 96 86.99">
  <defs>
    <style>
      .cls-1 {
        fill: #044b59;
        stroke: #044b59;
        stroke-miterlimit: 10;
        stroke-width: 3px;
      }
    </style>
  </defs>
  <g>
    <path class="cls-1" d="M32.04,19.09h-14.38c-.44,0-.85-.27-1.02-.68-.17-.41-.08-.88.24-1.2L31.26,2.84c.31-.31.79-.41,1.2-.24.41.17.68.57.68,1.02v14.38c0,.61-.49,1.1-1.1,1.1ZM20.32,16.89h10.62V6.27l-10.62,10.62Z"/>
    <path class="cls-1" d="M78.34,85.49H17.66c-.61,0-1.1-.49-1.1-1.1V17.99c0-.29.12-.57.32-.78L31.26,2.84c.21-.21.49-.32.78-.32h46.3c.61,0,1.1.49,1.1,1.1v80.77c0,.61-.49,1.1-1.1,1.1ZM18.76,83.29h58.48V4.71h-44.75l-13.73,13.73v64.84Z"/>
  </g>
  <g>
    <path class="cls-1" d="M67.36,29.04h-27.29c-.61,0-1.1-.49-1.1-1.1s.49-1.1,1.1-1.1h27.29c.61,0,1.1.49,1.1,1.1s-.49,1.1-1.1,1.1Z"/>
    <path class="cls-1" d="M67.36,43.43H28.64c-.61,0-1.1-.49-1.1-1.1s.49-1.1,1.1-1.1h38.73c.61,0,1.1.49,1.1,1.1s-.49,1.1-1.1,1.1Z"/>
    <path class="cls-1" d="M67.36,57.82H28.64c-.61,0-1.1-.49-1.1-1.1s.49-1.1,1.1-1.1h38.73c.61,0,1.1.49,1.1,1.1s-.49,1.1-1.1,1.1Z"/>
    <path class="cls-1" d="M53.31,72.2h-24.67c-.61,0-1.1-.49-1.1-1.1s.49-1.1,1.1-1.1h24.67c.61,0,1.1.49,1.1,1.1s-.49,1.1-1.1,1.1Z"/>
  </g>
</svg>