<?xml version="1.0" encoding="UTF-8"?>
<svg id="cuenta" xmlns="http://www.w3.org/2000/svg" width="96" height="86.21" viewBox="0 0 96 86.21">
  <defs>
    <style>
      .cls-1 {
        fill: #044b59;
        stroke-width: 0px;
      }
    </style>
  </defs>
  <g>
    <g>
      <path class="cls-1" d="M15.28,82.5c-6.54,0-11.87-5.32-11.87-11.87V17.37c0-6.54,5.32-11.87,11.87-11.87h65.44c6.54,0,11.87,5.32,11.87,11.87v53.26c0,6.54-5.32,11.87-11.87,11.87H15.28ZM15.28,9.07c-4.58,0-8.3,3.72-8.3,8.3v53.26c0,4.58,3.72,8.3,8.3,8.3h65.44c4.58,0,8.3-3.72,8.3-8.3V17.37c0-4.58-3.72-8.3-8.3-8.3H15.28Z"/>
      <path class="cls-1" d="M80.72,6c6.27,0,11.37,5.1,11.37,11.37v53.26c0,6.27-5.1,11.37-11.37,11.37H15.28c-6.27,0-11.37-5.1-11.37-11.37V17.37c0-6.27,5.1-11.37,11.37-11.37h65.44M15.28,79.43h65.44c4.85,0,8.8-3.95,8.8-8.8V17.37c0-4.85-3.95-8.8-8.8-8.8H15.28c-4.85,0-8.8,3.95-8.8,8.8v53.26c0,4.85,3.95,8.8,8.8,8.8M80.72,5H15.28c-6.82,0-12.37,5.55-12.37,12.37v53.26c0,6.82,5.55,12.37,12.37,12.37h65.44c6.82,0,12.37-5.55,12.37-12.37V17.37c0-6.82-5.55-12.37-12.37-12.37h0ZM15.28,78.43c-4.3,0-7.8-3.5-7.8-7.8V17.37c0-4.3,3.5-7.8,7.8-7.8h65.44c4.3,0,7.8,3.5,7.8,7.8v53.26c0,4.3-3.5,7.8-7.8,7.8H15.28Z"/>
    </g>
    <g>
      <path class="cls-1" d="M70.87,55.6c-6.34,0-11.5-5.16-11.5-11.5v-.19c0-6.34,5.16-11.5,11.5-11.5h19.93c.99,0,1.79.8,1.79,1.79v19.62c0,.99-.8,1.79-1.79,1.79h-19.93ZM70.87,35.98c-4.37,0-7.93,3.56-7.93,7.93v.19c0,4.37,3.56,7.93,7.93,7.93h18.15v-16.05h-18.15Z"/>
      <path class="cls-1" d="M90.8,32.9c.71,0,1.29.58,1.29,1.29v19.62c0,.71-.58,1.29-1.29,1.29h-19.93c-6.06,0-11-4.93-11-11v-.19c0-6.06,4.93-11,11-11h19.93M70.87,52.52h18.65v-17.05h-18.65c-4.65,0-8.43,3.78-8.43,8.43v.19c0,4.65,3.78,8.43,8.43,8.43M90.8,31.9h-19.93c-6.62,0-12,5.38-12,12v.19c0,6.62,5.38,12,12,12h19.93c1.26,0,2.29-1.03,2.29-2.29v-19.62c0-1.26-1.03-2.29-2.29-2.29h0ZM70.87,51.52c-4.09,0-7.43-3.33-7.43-7.43v-.19c0-4.09,3.33-7.43,7.43-7.43h17.65v15.05h-17.65Z"/>
    </g>
    <g>
      <path class="cls-1" d="M71.6,49.7c-3.14,0-5.7-2.56-5.7-5.7s2.56-5.7,5.7-5.7,5.7,2.56,5.7,5.7-2.56,5.7-5.7,5.7ZM71.6,41.87c-1.17,0-2.13.95-2.13,2.13s.95,2.13,2.13,2.13,2.13-.95,2.13-2.13-.95-2.13-2.13-2.13Z"/>
      <path class="cls-1" d="M71.6,38.8c2.87,0,5.2,2.33,5.2,5.2s-2.33,5.2-5.2,5.2-5.2-2.33-5.2-5.2,2.33-5.2,5.2-5.2M71.6,46.63c1.45,0,2.63-1.18,2.63-2.63s-1.18-2.63-2.63-2.63-2.63,1.18-2.63,2.63,1.18,2.63,2.63,2.63M71.6,37.8c-3.42,0-6.2,2.78-6.2,6.2s2.78,6.2,6.2,6.2,6.2-2.78,6.2-6.2-2.78-6.2-6.2-6.2h0ZM71.6,45.63c-.9,0-1.63-.73-1.63-1.63s.73-1.63,1.63-1.63,1.63.73,1.63,1.63-.73,1.63-1.63,1.63h0Z"/>
    </g>
  </g>
  <g>
    <g>
      <g>
        <path class="cls-1" d="M5.2,17.59c-.98,0-1.79-.8-1.79-1.79s.8-1.79,1.79-1.79h2.8c.98,0,1.79.8,1.79,1.79s-.8,1.79-1.79,1.79h-2.8Z"/>
        <path class="cls-1" d="M7.99,14.52c.71,0,1.29.58,1.29,1.29s-.58,1.29-1.29,1.29h-2.8c-.71,0-1.29-.58-1.29-1.29s.58-1.29,1.29-1.29h2.8M7.99,13.52h-2.8c-1.26,0-2.29,1.03-2.29,2.29s1.03,2.29,2.29,2.29h2.8c1.26,0,2.29-1.03,2.29-2.29s-1.03-2.29-2.29-2.29h0Z"/>
      </g>
      <g>
        <path class="cls-1" d="M70.86,17.59c-.99,0-1.79-.8-1.79-1.79s.8-1.79,1.79-1.79h5.71c.99,0,1.79.8,1.79,1.79s-.8,1.79-1.79,1.79h-5.71ZM53.71,17.59c-.99,0-1.79-.8-1.79-1.79s.8-1.79,1.79-1.79h5.71c.99,0,1.79.8,1.79,1.79s-.8,1.79-1.79,1.79h-5.71ZM36.57,17.59c-.98,0-1.79-.8-1.79-1.79s.8-1.79,1.79-1.79h5.72c.98,0,1.79.8,1.79,1.79s-.8,1.79-1.79,1.79h-5.72ZM19.42,17.59c-.98,0-1.79-.8-1.79-1.79s.8-1.79,1.79-1.79h5.71c.98,0,1.79.8,1.79,1.79s-.8,1.79-1.79,1.79h-5.71Z"/>
        <path class="cls-1" d="M76.57,14.52c.71,0,1.29.58,1.29,1.29s-.58,1.29-1.29,1.29h-5.71c-.71,0-1.29-.58-1.29-1.29s.58-1.29,1.29-1.29h5.71M59.43,14.52c.71,0,1.29.58,1.29,1.29s-.58,1.29-1.29,1.29h-5.71c-.71,0-1.29-.58-1.29-1.29s.58-1.29,1.29-1.29h5.71M42.29,14.52c.71,0,1.29.58,1.29,1.29s-.58,1.29-1.29,1.29h-5.72c-.71,0-1.29-.58-1.29-1.29s.58-1.29,1.29-1.29h5.72M25.14,14.52c.71,0,1.29.58,1.29,1.29s-.58,1.29-1.29,1.29h-5.71c-.71,0-1.29-.58-1.29-1.29s.58-1.29,1.29-1.29h5.71M76.57,13.52h-5.71c-1.26,0-2.29,1.03-2.29,2.29s1.03,2.29,2.29,2.29h5.71c1.26,0,2.29-1.03,2.29-2.29s-1.03-2.29-2.29-2.29h0ZM59.43,13.52h-5.71c-1.26,0-2.29,1.03-2.29,2.29s1.03,2.29,2.29,2.29h5.71c1.26,0,2.29-1.03,2.29-2.29s-1.03-2.29-2.29-2.29h0ZM42.29,13.52h-5.72c-1.26,0-2.29,1.03-2.29,2.29s1.03,2.29,2.29,2.29h5.72c1.26,0,2.29-1.03,2.29-2.29s-1.03-2.29-2.29-2.29h0ZM25.14,13.52h-5.71c-1.26,0-2.29,1.03-2.29,2.29s1.03,2.29,2.29,2.29h5.71c1.26,0,2.29-1.03,2.29-2.29s-1.03-2.29-2.29-2.29h0Z"/>
      </g>
      <g>
        <path class="cls-1" d="M88,17.59c-.99,0-1.79-.8-1.79-1.79s.8-1.79,1.79-1.79h2.8c.99,0,1.79.8,1.79,1.79s-.8,1.79-1.79,1.79h-2.8Z"/>
        <path class="cls-1" d="M90.8,14.52c.71,0,1.29.58,1.29,1.29s-.58,1.29-1.29,1.29h-2.8c-.71,0-1.29-.58-1.29-1.29s.58-1.29,1.29-1.29h2.8M90.8,13.52h-2.8c-1.26,0-2.29,1.03-2.29,2.29s1.03,2.29,2.29,2.29h2.8c1.26,0,2.29-1.03,2.29-2.29s-1.03-2.29-2.29-2.29h0Z"/>
      </g>
    </g>
    <g>
      <g>
        <path class="cls-1" d="M5.2,73.98c-.98,0-1.79-.8-1.79-1.79s.8-1.79,1.79-1.79h2.8c.98,0,1.79.8,1.79,1.79s-.8,1.79-1.79,1.79h-2.8Z"/>
        <path class="cls-1" d="M7.99,70.91c.71,0,1.29.58,1.29,1.29s-.58,1.29-1.29,1.29h-2.8c-.71,0-1.29-.58-1.29-1.29s.58-1.29,1.29-1.29h2.8M7.99,69.91h-2.8c-1.26,0-2.29,1.03-2.29,2.29s1.03,2.29,2.29,2.29h2.8c1.26,0,2.29-1.03,2.29-2.29s-1.03-2.29-2.29-2.29h0Z"/>
      </g>
      <g>
        <path class="cls-1" d="M70.86,73.98c-.99,0-1.79-.8-1.79-1.79s.8-1.79,1.79-1.79h5.71c.99,0,1.79.8,1.79,1.79s-.8,1.79-1.79,1.79h-5.71ZM53.71,73.98c-.99,0-1.79-.8-1.79-1.79s.8-1.79,1.79-1.79h5.71c.99,0,1.79.8,1.79,1.79s-.8,1.79-1.79,1.79h-5.71ZM36.57,73.98c-.98,0-1.79-.8-1.79-1.79s.8-1.79,1.79-1.79h5.72c.98,0,1.79.8,1.79,1.79s-.8,1.79-1.79,1.79h-5.72ZM19.42,73.98c-.98,0-1.79-.8-1.79-1.79s.8-1.79,1.79-1.79h5.71c.98,0,1.79.8,1.79,1.79s-.8,1.79-1.79,1.79h-5.71Z"/>
        <path class="cls-1" d="M76.57,70.91c.71,0,1.29.58,1.29,1.29s-.58,1.29-1.29,1.29h-5.71c-.71,0-1.29-.58-1.29-1.29s.58-1.29,1.29-1.29h5.71M59.43,70.91c.71,0,1.29.58,1.29,1.29s-.58,1.29-1.29,1.29h-5.71c-.71,0-1.29-.58-1.29-1.29s.58-1.29,1.29-1.29h5.71M42.29,70.91c.71,0,1.29.58,1.29,1.29s-.58,1.29-1.29,1.29h-5.72c-.71,0-1.29-.58-1.29-1.29s.58-1.29,1.29-1.29h5.72M25.14,70.91c.71,0,1.29.58,1.29,1.29s-.58,1.29-1.29,1.29h-5.71c-.71,0-1.29-.58-1.29-1.29s.58-1.29,1.29-1.29h5.71M76.57,69.91h-5.71c-1.26,0-2.29,1.03-2.29,2.29s1.03,2.29,2.29,2.29h5.71c1.26,0,2.29-1.03,2.29-2.29s-1.03-2.29-2.29-2.29h0ZM59.43,69.91h-5.71c-1.26,0-2.29,1.03-2.29,2.29s1.03,2.29,2.29,2.29h5.71c1.26,0,2.29-1.03,2.29-2.29s-1.03-2.29-2.29-2.29h0ZM42.29,69.91h-5.72c-1.26,0-2.29,1.03-2.29,2.29s1.03,2.29,2.29,2.29h5.72c1.26,0,2.29-1.03,2.29-2.29s-1.03-2.29-2.29-2.29h0ZM25.14,69.91h-5.71c-1.26,0-2.29,1.03-2.29,2.29s1.03,2.29,2.29,2.29h5.71c1.26,0,2.29-1.03,2.29-2.29s-1.03-2.29-2.29-2.29h0Z"/>
      </g>
      <g>
        <path class="cls-1" d="M88,73.98c-.99,0-1.79-.8-1.79-1.79s.8-1.79,1.79-1.79h2.8c.99,0,1.79.8,1.79,1.79s-.8,1.79-1.79,1.79h-2.8Z"/>
        <path class="cls-1" d="M90.8,70.91c.71,0,1.29.58,1.29,1.29s-.58,1.29-1.29,1.29h-2.8c-.71,0-1.29-.58-1.29-1.29s.58-1.29,1.29-1.29h2.8M90.8,69.91h-2.8c-1.26,0-2.29,1.03-2.29,2.29s1.03,2.29,2.29,2.29h2.8c1.26,0,2.29-1.03,2.29-2.29s-1.03-2.29-2.29-2.29h0Z"/>
      </g>
    </g>
  </g>
</svg>