<?xml version="1.0" encoding="UTF-8"?>
<svg id="Layer_1" data-name="Layer 1" xmlns="http://www.w3.org/2000/svg" width="82.62" height="83.7" viewBox="0 0 82.62 83.7">
  <defs>
    <style>
      .cls-1 {
        fill: #044b59;
        fill-rule: evenodd;
        stroke-width: 0px;
      }
    </style>
  </defs>
  <path class="cls-1" d="M33.74,0h39.15c.43,0,.82.11,1.17.31,1.51.37,2.88,1.06,3.98,1.97,1.83,1.51,2.97,3.63,2.97,5.99v6.51c0,1.3-1.05,2.35-2.34,2.35h-12.04v30.28c4.29.27,8.15,2.12,11,4.97,3.09,3.09,5,7.36,5,12.08s-1.91,8.99-5,12.08c-3.09,3.09-7.36,5-12.08,5-1.46,0-2.87-.18-4.22-.53-.93.7-1.96,1.29-3.06,1.73-.6.24-1.22.44-1.87.59-.27.17-.57.29-.9.34-.12.02-.24.03-.35.03-13.49.02-26.97,0-40.46,0-3.98,0-7.61-1.46-10.26-3.81-2.72-2.42-4.42-5.78-4.42-9.48v-.91c0-1.3,1.05-2.35,2.35-2.35h15.76V13.29c0-3.74,1.83-7.11,4.76-9.54,2.81-2.32,6.66-3.76,10.87-3.76h0ZM66.33,54.1c0-.65-.25-.97-.75-.97s-.75.33-.75.99v1.26c-1.63.14-2.88.64-3.74,1.51-.86.86-1.3,1.98-1.3,3.33,0,1.04.22,1.89.66,2.55.44.66,1.02,1.17,1.73,1.53.71.36,1.59.68,2.65.98v5.49c-.53-.15-.95-.37-1.27-.65-.32-.28-.56-.6-.72-.94-.16-.34-.34-.84-.55-1.48-.09-.3-.27-.53-.51-.7-.25-.17-.55-.25-.9-.25-.44,0-.81.15-1.1.46-.3.3-.45.65-.45,1.02,0,.51.11,1.04.33,1.57.22.53.57,1.04,1.02,1.53.46.49,1.04.9,1.73,1.24.69.33,1.5.55,2.42.65v1.48c0,.36.05.64.17.81.11.17.32.26.6.26.31,0,.51-.11.6-.32.09-.21.13-.55.13-1.01v-1.23c1.13-.09,2.1-.39,2.93-.88.82-.5,1.44-1.14,1.86-1.93.42-.78.64-1.62.64-2.52,0-.72-.13-1.38-.4-1.98-.26-.6-.64-1.12-1.13-1.55-.46-.42-.98-.74-1.55-.96-.58-.22-1.36-.47-2.34-.73v-4.92c.99.32,1.62.98,1.88,1.97.22.83.73,1.25,1.5,1.25.41,0,.76-.15,1.05-.43.28-.29.43-.63.43-1.02,0-.36-.1-.74-.29-1.17-.2-.42-.47-.84-.82-1.24-.45-.53-.97-.92-1.58-1.18-.6-.26-1.33-.43-2.17-.52v-1.28h0ZM64.83,62.21v-4.53c-.66.2-1.18.46-1.55.78-.37.32-.56.81-.56,1.47s.17,1.09.52,1.41c.35.32.88.61,1.59.87h0ZM66.33,65.72v5.18c.79-.16,1.41-.48,1.85-.96.43-.48.65-1.04.65-1.68,0-.69-.21-1.21-.64-1.59-.42-.37-1.04-.69-1.86-.95h0ZM64.54,52.11h-.13s0,.01,0,.01h-.12c-2.92.31-5.54,1.62-7.49,3.57-.99.99-1.81,2.14-2.42,3.42h0s0,.02,0,.02h0s0,.02,0,.02h0s0,.01,0,.01h0s0,.02,0,.02c-.6,1.28-.99,2.69-1.12,4.16v.08c-.02.17-.03.34-.04.51v.35s0,.01,0,.01v.16c0,3.42,1.38,6.52,3.62,8.76,2.24,2.24,5.34,3.63,8.76,3.63s6.52-1.39,8.75-3.63c2.24-2.24,3.63-5.34,3.63-8.76s-1.39-6.52-3.63-8.76c-2.24-2.24-5.34-3.63-8.75-3.63-.34,0-.68.01-1.01.04h0ZM55.96,78.59c-.9-.61-1.73-1.3-2.49-2.06-1.91-1.91-3.37-4.27-4.21-6.9v5.79h0v.04h0v.04s0,0,0,0v.04h0v.04h0v.04h0s0,.04,0,.04h0s0,.04,0,.04h0s0,.04,0,.04h0s0,.04,0,.04c.1.77.51,1.48,1.11,2.03h0s.03.03.03.03h.01c.79.71,1.91,1.14,3.15,1.14h.13c.77-.03,1.52-.17,2.24-.41h0ZM48.88,68.21c-.04-.19-.08-.38-.12-.57v-.06s-.07-.35-.07-.35v-.06s-.02-.06-.02-.06l-.02-.12v-.06s-.02-.06-.02-.06v-.05s0-.01,0-.01v-.06s-.02-.06-.02-.06v-.06s-.02-.06-.02-.06v-.06s-.01-.06-.01-.06v-.06s0,0,0,0v-.06s-.02-.06-.02-.06v-.1s0-.02,0-.02v-.06s-.02-.06-.02-.06v-.06s0-.02,0-.02v-.03l-.02-.18h0s0-.06,0-.06v-.16s-.01-.02-.01-.02v-.18s-.01-.02-.01-.02v-.04c-.01-.2-.02-.4-.02-.6v-.24c0-.29,0-.59.02-.88h0s0-.14,0-.14v-.06s0-.02,0-.02l.02-.22h0s0-.08,0-.08v-.06s0-.06,0-.06h0s0-.06,0-.06v-.06s0-.06,0-.06v-.04s0-.02,0-.02v-.06s.02-.06.02-.06v-.06s0,0,0,0v-.06s.01-.06.01-.06v-.06s.01-.04.01-.04v-.02s.02-.06.02-.06v-.06s.02-.06.02-.06h0s0-.06,0-.06v-.06s.02-.06.02-.06v-.06s.02-.06.02-.06v-.06c.05-.25.1-.49.15-.73l.02-.06c.03-.14.06-.28.09-.42h-21.22c-1.3,0-2.35-1.05-2.35-2.35s1.05-2.35,2.35-2.35h23.11c.73-1.25,1.63-2.4,2.65-3.42.33-.33.67-.64,1.02-.94h-26.78c-1.3,0-2.35-1.05-2.35-2.35s1.05-2.35,2.35-2.35h29.32c1.11,0,2.04.77,2.28,1.81.84-.33,1.72-.59,2.61-.79V8.28c0-.14,0-.28.02-.42v-.02l.02-.22h0s0-.06,0-.06v-.05s0,0,0,0l.03-.21v-.08s.01-.02.01-.02v-.04s.02-.06.02-.06h0s0-.06,0-.06l.03-.17h0s0-.06,0-.06l.04-.15v-.03s.02-.08.02-.08v-.03s.02-.06.02-.06v-.02s.02-.04.02-.04l.02-.05h0s.03-.11.03-.11h0s.02-.06.02-.06l.02-.05h0s.02-.07.02-.07v-.03s.02-.02.02-.02l.02-.05v-.03s.02-.03.02-.03l.02-.06v-.02s.02-.04.02-.04l.02-.05h0s.04-.11.04-.11h0l.02-.06.02-.04h0s.02-.06.02-.06v-.04s.02-.02.02-.02l.02-.05.02-.03v-.03s.03-.05.03-.05v-.02s.03-.04.03-.04l.02-.05h0s.02-.05.02-.05l.02-.05.02-.05.02-.04h0s.03-.06.03-.06l.02-.04v-.02s.04-.05.04-.05v-.03s.02-.03.02-.03l.03-.05h-29.13c-3.1,0-5.89,1.02-7.9,2.67-1.87,1.54-3.03,3.64-3.03,5.92v53.86h24.14s.02,0,.02,0h.02s.04,0,.04,0h.07s0,0,0,0h.04s.01,0,.01,0h.02s.04,0,.04,0h.04s.02,0,.02,0h.02s.03.01.03.01h.04s.02,0,.02,0h.01s.04.01.04.01h.04s.02.01.02.01h0s.04.01.04.01h.01s.02,0,.02,0h.03s0,.01,0,.01h.03s.02.02.02.02h.02s.04.02.04.02h0s.03.01.03.01h.02s.01.01.01.01h.04s0,.02,0,.02h.02s.03.03.03.03h0s.04.02.04.02h.01s.02.02.02.02l.03.02h0l.03.02h.02s.05.04.05.04h0s.05.03.05.03h.01s.03.03.03.03h0s.02.02.02.02l.03.02h0s.03.02.03.02h.01s.02.02.02.02l.03.02.03.02h.02s.01.02.01.02l.03.02h0s.02.02.02.02l.02.02h0s.02.03.02.03h.01s.02.02.02.02l.02.02h0s.02.03.02.03h.02s.01.03.01.03l.03.03h0l.02.03.02.02h0s.02.04.02.04l.02.02h0s.02.03.02.03h0s.02.03.02.03h.01s.01.03.01.03l.02.03h0s.02.03.02.03h0s.01.03.01.03l.02.03h0s.02.03.02.03h0ZM27.71,42.39h29.32c1.3,0,2.35-1.05,2.35-2.35s-1.05-2.35-2.35-2.35h-29.32c-1.3,0-2.35,1.05-2.35,2.35s1.05,2.35,2.35,2.35h0ZM27.71,33.33h29.32c1.3,0,2.35-1.05,2.35-2.35s-1.05-2.35-2.35-2.35h-29.32c-1.3,0-2.35,1.05-2.35,2.35s1.05,2.35,2.35,2.35h0ZM27.71,24.28h29.32c1.3,0,2.35-1.05,2.35-2.35s-1.05-2.35-2.35-2.35h-29.32c-1.3,0-2.35,1.05-2.35,2.35s1.05,2.35,2.35,2.35h0ZM72.59,4.79h-.01c-.05-.01-.1-.02-.15-.03h-.02s-.16-.02-.16-.02h-.06s-.06-.01-.06-.01h-.02c-.14-.02-.27-.03-.42-.03h0s0,0,0,0h-.1s-.01,0-.01,0h-.22s-.06,0-.06,0h-.07s-.07,0-.07,0h-.06s-.07.01-.07.01h-.07s-.06,0-.06,0h-.06s-.07.01-.07.01h-.06s-.07.01-.07.01h-.06s-.06.02-.06.02h-.06s0,.01,0,.01h-.06s0,0,0,0h-.06s-.06.02-.06.02h-.06s-.06.03-.06.03h-.06s-.06.03-.06.03h0l-.06.02h-.06s-.05.03-.05.03h0l-.06.02h0l-.06.02h0l-.06.02h0l-.05.02h0l-.06.02h0l-.06.02h0l-.06.02h0l-.06.02h0l-.06.02h0l-.06.02h0l-.06.02h0l-.05.02h0s-.05.02-.05.02h0s-.05.02-.05.02h0l-.06.03h0l-.06.02h0l-.05.02h0s-.05.03-.05.03h0l-.06.03h0l-.05.03h0s-.06.03-.06.03h0l-.05.03h0l-.05.03h0l-.05.03h0s-.05.03-.05.03h0l-.05.03h0l-.05.03h0s-.05.03-.05.03h0l-.05.03h0l-.04.03h0l-.04.03h0l-.04.03h0l-.05.03h0l-.04.03h0l-.04.03h0l-.04.03h0s-.04.04-.04.04h0l-.04.04h0l-.04.03h0l-.04.03h0l-.04.03h0l-.04.03h0s-.03.03-.03.03h0l-.03.03h0l-.03.03h0l-.03.03h0l-.03.03h0s-.03.03-.03.03h0l-.03.03h0l-.03.03h0l-.03.03h0l-.03.04h0l-.03.03h0s-.03.04-.03.04h0l-.03.03h0s-.03.04-.03.04h0l-.03.04h0l-.03.04h0l-.02.04h0l-.03.04h0l-.02.04h0l-.02.03h0s-.02.04-.02.04h0l-.02.04h0l-.02.04h0s-.02.04-.02.04h0l-.02.04h0l-.02.04h0l-.02.04h0l-.02.04h0l-.02.04h0l-.02.04h0s-.02.04-.02.04h0l-.02.04h0l-.02.04h0s-.02.04-.02.04h0l-.02.04h0l-.02.04h0l-.02.04h0l-.02.04h0s-.02.04-.02.04h0l-.02.04h0v.04h0l-.02.04h0s0,.04,0,.04h0l-.02.04h0v.04h0v.04h-.01v.04h0v.04h0v.04h0v.04h0v.04h0v.04h0v.04s0,0,0,0v.04h0v.04h0v.04h0v.04h0v.04h0v.04h0v4.2h9.69v-4.16c0-.9-.48-1.74-1.25-2.38-.65-.54-1.51-.93-2.47-1.1h0ZM71.48,4.7v-.36s-.01.36-.01.36h.01ZM45.46,79c-.35-.66-.6-1.37-.75-2.11h0c-.02-.12-.04-.23-.06-.35v-.06s0,0,0,0v-.06s-.02-.05-.02-.05h0s0-.07,0-.07v-.04s0-.02,0-.02v-.06s0-.03,0-.03v-.09s0-.02,0-.02v-.05s0-.06,0-.06h0s0-.06,0-.06v-.05h0s0-.07,0-.07v-.04s0-.02,0-.02v-.12s0-.06,0-.06h0v-.12h0v-3.58H4.84c.35,1.75,1.31,3.32,2.68,4.54,1.82,1.61,4.36,2.62,7.16,2.62h30.79Z"/>
</svg>