<?xml version="1.0" encoding="UTF-8"?>
<svg id="Layer_1" data-name="Layer 1" xmlns="http://www.w3.org/2000/svg" xmlns:xlink="http://www.w3.org/1999/xlink" viewBox="0 0 25.55 20.02">
  <defs>
    <style>
      .cls-1 {
        fill: #fdfdfd;
      }

      .cls-1, .cls-2, .cls-3, .cls-4 {
        stroke-width: 0px;
      }

      .cls-5 {
        clip-path: url(#clippath);
      }

      .cls-2 {
        fill: none;
      }

      .cls-3 {
        fill: #024b59;
      }

      .cls-4 {
        fill: #01333d;
      }
    </style>
    <clipPath id="clippath">
      <rect class="cls-2" x="4.37" y="1.62" width="16.79" height="16.79" rx="1.61" ry="1.61"/>
    </clipPath>
  </defs>
  <g class="cls-5">
    <g id="jtw5vq.tif">
      <g>
        <path class="cls-3" d="M0,20.01C0,13.36,0,6.71,0,.06,0,.01.01,0,.06,0c8.49,0,16.98,0,25.48,0,0,2.63,0,5.27,0,7.9,0,4.01,0,8.02,0,12.03q0,.08-.08.08c-8.48,0-16.97,0-25.45,0ZM18.16,13.94s-.03-.02-.04-.02c-.82-.55-1.63-1.12-2.43-1.71-.03-.02-.04-.05-.04-.09,0-.48,0-.96,0-1.44,0-.49.01-.98.02-1.47,0-.29-.22-.52-.5-.52-.28,0-.5.22-.5.51,0,.3,0,.6-.01.9,0,.44,0,.89,0,1.33,0,.33,0,.67.02,1,.01.15.07.27.18.37.05.04.1.08.15.12.87.66,1.77,1.29,2.68,1.9.22.15.44.3.67.41.31.15.65.01.75-.31.03-.1.04-.2.04-.3.03-.47.03-.94.03-1.41,0-.77,0-1.54-.01-2.3,0-.47-.01-.94-.04-1.42,0-.16-.07-.29-.18-.4-.09-.09-.19-.16-.29-.24-.83-.62-1.69-1.2-2.55-1.78-.37-.25-.74-.5-1.12-.73-.25-.15-.46-.13-.68.06-.44.37-.84.78-1.26,1.19-.54.53-1.08,1.06-1.61,1.6-.36.37-.72.73-1.07,1.12-.11.12-.21.24-.24.41-.02.11-.03.23-.03.35-.02.57-.01,1.14,0,1.71.01.78.02,1.56.03,2.35,0,.11,0,.23,0,.35-.04-.02-.07-.04-.09-.06-.27-.19-.54-.37-.81-.56-.5-.35-.99-.7-1.47-1.08-.03-.02-.04-.04-.04-.08,0-.26-.02-.52-.02-.79-.01-1.41,0-2.83.03-4.24,0-.05.02-.08.05-.12.15-.16.3-.33.46-.49.59-.62,1.18-1.22,1.79-1.81.4-.39.8-.79,1.21-1.17.05-.05.09-.05.15-.02.52.31,1.04.63,1.55.95.24.15.55.08.7-.15.15-.24.08-.55-.16-.7-.29-.18-.58-.36-.87-.54-.35-.22-.7-.44-1.08-.62-.17-.08-.34-.1-.52-.02-.08.04-.15.09-.21.15-.23.19-.44.39-.65.6-.61.58-1.2,1.17-1.79,1.77-.45.46-.9.91-1.32,1.39-.17.19-.29.38-.3.65-.02.85-.03,1.71-.04,2.57,0,.53,0,1.05,0,1.58,0,.38.01.77.03,1.15.01.26.09.48.3.64.06.04.11.09.17.14.89.69,1.82,1.34,2.77,1.96.15.1.29.19.45.26.34.14.67-.05.73-.41.02-.11.01-.21.01-.32,0-.72-.01-1.44-.02-2.17,0-.6-.01-1.19-.02-1.79,0-.35,0-.71,0-1.06,0-.06.02-.1.06-.14.33-.37.68-.72,1.03-1.08.82-.82,1.64-1.64,2.48-2.44.03-.03.05-.04.09,0,.74.48,1.47.98,2.2,1.49.37.26.75.52,1.11.8.03.03.05.05.05.1,0,.1,0,.2,0,.29.03,1.18.03,2.36.03,3.54,0,.1,0,.2,0,.32ZM25.36,7.38c0,.06,0,.12,0,.17,0,.07,0,.15,0,.22,0,.05.03.08.07.08.05,0,.07-.03.07-.08,0,0,0-.02,0-.02,0-.24,0-.49,0-.73,0-.01,0-.03,0-.04-.01-.03-.03-.06-.07-.06-.04,0-.06.03-.07.06,0,.02,0,.04,0,.06,0,.12,0,.23,0,.35Z"/>
        <path class="cls-1" d="M0,20.01c8.48,0,16.97,0,25.45,0q.08,0,.08-.08c0-4.01,0-8.02,0-12.03,0-2.63,0-5.27,0-7.9,0,0,.01,0,.01,0,0,.02,0,.03,0,.05,0,6.64,0,13.27,0,19.91,0,.05-.01.06-.06.06-8.48,0-16.96,0-25.43,0-.02,0-.04.01-.06-.01Z"/>
        <path class="cls-1" d="M18.16,13.94c0-.11,0-.21,0-.32,0-1.18,0-2.36-.03-3.54,0-.1,0-.2,0-.29,0-.04-.02-.07-.05-.1-.36-.27-.74-.54-1.11-.8-.73-.51-1.46-1.01-2.2-1.49-.04-.03-.06-.02-.09,0-.84.79-1.67,1.61-2.48,2.44-.35.35-.7.71-1.03,1.08-.04.04-.06.08-.06.14,0,.35-.01.71,0,1.06,0,.6.01,1.19.02,1.79,0,.72.02,1.44.02,2.17,0,.11,0,.21-.01.32-.05.36-.39.55-.73.41-.16-.07-.31-.16-.45-.26-.95-.62-1.87-1.26-2.77-1.96-.06-.04-.11-.09-.17-.14-.21-.16-.29-.38-.3-.64-.02-.38-.02-.77-.03-1.15,0-.53,0-1.05,0-1.58,0-.86.02-1.71.04-2.57,0-.27.13-.46.3-.65.43-.47.88-.93,1.32-1.39.59-.6,1.18-1.19,1.79-1.77.21-.2.43-.41.65-.6.07-.06.14-.11.21-.15.18-.08.35-.06.52.02.37.18.73.4,1.08.62.29.18.58.36.87.54.24.15.31.46.16.7-.15.23-.46.3-.7.15-.51-.33-1.03-.65-1.55-.95-.06-.04-.09-.03-.15.02-.41.38-.81.77-1.21,1.17-.6.6-1.2,1.2-1.79,1.81-.15.16-.31.33-.46.49-.03.03-.05.07-.05.12-.04,1.41-.04,2.83-.03,4.24,0,.26.02.52.02.79,0,.04.02.06.04.08.47.38.97.73,1.47,1.08.27.19.54.37.81.56.03.02.06.04.09.06,0-.12,0-.23,0-.35,0-.78-.02-1.56-.03-2.35,0-.57-.01-1.14,0-1.71,0-.12,0-.23.03-.35.03-.17.13-.29.24-.41.34-.39.7-.75,1.07-1.12.53-.54,1.07-1.07,1.61-1.6.41-.4.82-.81,1.26-1.19.22-.19.43-.21.68-.06.39.23.75.48,1.12.73.86.58,1.71,1.16,2.55,1.78.1.07.2.15.29.24.11.11.17.24.18.4.03.47.03.94.04,1.42.01.77.01,1.54.01,2.3,0,.47,0,.94-.03,1.41,0,.1-.01.2-.04.3-.1.32-.44.46-.75.31-.24-.12-.46-.27-.67-.41-.91-.61-1.81-1.24-2.68-1.9-.05-.04-.1-.08-.15-.12-.11-.1-.17-.22-.18-.37-.02-.33-.02-.67-.02-1,0-.44,0-.89,0-1.33,0-.3,0-.6.01-.9,0-.29.23-.51.5-.51.28,0,.5.23.5.52,0,.49-.02.98-.02,1.47,0,.48,0,.96,0,1.44,0,.04,0,.07.04.09.8.59,1.61,1.16,2.43,1.71,0,0,.02,0,.04.02Z"/>
        <path class="cls-4" d="M25.36,7.38c0-.12,0-.23,0-.35,0-.02,0-.04,0-.06,0-.03.03-.06.07-.06.04,0,.06.03.07.06,0,.01,0,.03,0,.04,0,.24,0,.49,0,.73,0,0,0,.02,0,.02,0,.05-.03.08-.07.08-.05,0-.07-.03-.07-.08,0-.07,0-.15,0-.22,0-.06,0-.12,0-.17Z"/>
      </g>
    </g>
  </g>
</svg>