<?xml version="1.0" encoding="UTF-8"?>
<svg id="Layer_1" data-name="Layer 1" xmlns="http://www.w3.org/2000/svg" viewBox="0 0 25.55 20.02">
  <defs>
    <style>
      .cls-1 {
        fill: #024b59;
        stroke-width: 0px;
      }
    </style>
  </defs>
  <g id="jtw5vq.tif">
    <path class="cls-1" d="M18.16,13.94c0-.11,0-.21,0-.32,0-1.18,0-2.36-.03-3.54,0-.1,0-.2,0-.29,0-.04-.02-.07-.05-.1-.36-.27-.74-.54-1.11-.8-.73-.51-1.46-1.01-2.2-1.49-.04-.03-.06-.02-.09,0-.84.79-1.67,1.61-2.48,2.44-.35.35-.7.71-1.03,1.08-.04.04-.06.08-.06.14,0,.35-.01.71,0,1.06,0,.6.01,1.19.02,1.79,0,.72.02,1.44.02,2.17,0,.11,0,.21-.01.32-.05.36-.39.55-.73.41-.16-.07-.31-.16-.45-.26-.95-.62-1.87-1.26-2.77-1.96-.06-.04-.11-.09-.17-.14-.21-.16-.29-.38-.3-.64-.02-.38-.02-.77-.03-1.15,0-.53,0-1.05,0-1.58,0-.86.02-1.71.04-2.57,0-.27.13-.46.3-.65.43-.47.88-.93,1.32-1.39.59-.6,1.18-1.19,1.79-1.77.21-.2.43-.41.65-.6.07-.06.14-.11.21-.15.18-.08.35-.06.52.02.37.18.73.4,1.08.62.29.18.58.36.87.54.24.15.31.46.16.7-.15.23-.46.3-.7.15-.51-.33-1.03-.65-1.55-.95-.06-.04-.09-.03-.15.02-.41.38-.81.77-1.21,1.17-.6.6-1.2,1.2-1.79,1.81-.15.16-.31.33-.46.49-.03.03-.05.07-.05.12-.04,1.41-.04,2.83-.03,4.24,0,.26.02.52.02.79,0,.04.02.06.04.08.47.38.97.73,1.47,1.08.27.19.54.37.81.56.03.02.06.04.09.06,0-.12,0-.23,0-.35,0-.78-.02-1.56-.03-2.35,0-.57-.01-1.14,0-1.71,0-.12,0-.23.03-.35.03-.17.13-.29.24-.41.34-.39.7-.75,1.07-1.12.53-.54,1.07-1.07,1.61-1.6.41-.4.82-.81,1.26-1.19.22-.19.43-.21.68-.06.39.23.75.48,1.12.73.86.58,1.71,1.16,2.55,1.78.1.07.2.15.29.24.11.11.17.24.18.4.03.47.03.94.04,1.42.01.77.01,1.54.01,2.3,0,.47,0,.94-.03,1.41,0,.1-.01.2-.04.3-.1.32-.44.46-.75.31-.24-.12-.46-.27-.67-.41-.91-.61-1.81-1.24-2.68-1.9-.05-.04-.1-.08-.15-.12-.11-.1-.17-.22-.18-.37-.02-.33-.02-.67-.02-1,0-.44,0-.89,0-1.33,0-.3,0-.6.01-.9,0-.29.23-.51.5-.51.28,0,.5.23.5.52,0,.49-.02.98-.02,1.47,0,.48,0,.96,0,1.44,0,.04,0,.07.04.09.8.59,1.61,1.16,2.43,1.71,0,0,.02,0,.04.02Z"/>
  </g>
</svg>