<?xml version="1.0" encoding="UTF-8"?>
<svg id="Layer_3" data-name="Layer 3" xmlns="http://www.w3.org/2000/svg" width="96" height="83.7" viewBox="0 0 96 83.7">
  <defs>
    <style>
      .cls-1 {
        fill: #044b59;
        fill-rule: evenodd;
        stroke-width: 0px;
      }
    </style>
  </defs>
  <path class="cls-1" d="M36.25,35.99h4.53v-4.53h-4.53v4.53h0ZM8.24,31.6v-6.19h79.51v6.19h-23.76v-2.26c0-1.17-.95-2.12-2.12-2.12h-8.77c-1.17,0-2.12.95-2.12,2.12v2.26h-5.95v-2.26c0-1.17-.95-2.12-2.12-2.12h-8.77c-1.17,0-2.12.95-2.12,2.12v2.26H8.24ZM32.01,35.84v2.26c0,1.17.95,2.12,2.12,2.12h8.77c1.17,0,2.12-.95,2.12-2.12v-2.26h5.95v2.26c0,1.17.95,2.12,2.12,2.12h8.77c1.17,0,2.12-.95,2.12-2.12v-2.26h23.76v35.75H8.24v-35.75h23.77ZM92,33.67v37.97c0,1.16-.47,2.21-1.23,2.97l-.16.15c-.75.67-1.73,1.09-2.81,1.09H8.21c-1.16,0-2.21-.47-2.97-1.23h0c-.76-.76-1.23-1.81-1.23-2.97V25.37c0-1.16.47-2.21,1.23-2.97l.16-.15c.75-.67,1.73-1.08,2.81-1.08h21.23v-5.45c0-1.61.66-3.07,1.71-4.13,1.06-1.06,2.52-1.71,4.13-1.71h25.44c1.61,0,3.07.66,4.13,1.71,1.06,1.06,1.72,2.52,1.72,4.13v5.45h21.23c1.15,0,2.2.47,2.97,1.23h0c.76.76,1.23,1.81,1.23,2.97v8.3h0ZM62.32,21.16v-5.45c0-.44-.18-.84-.48-1.13-.29-.29-.69-.47-1.13-.47h-25.44c-.44,0-.84.18-1.13.47-.29.29-.47.69-.47,1.13v5.45h28.65ZM55.22,35.99h4.53v-4.53h-4.53v4.53Z"/>
</svg>