<?xml version="1.0" encoding="UTF-8"?>
<svg id="Layer_1" data-name="Layer 1" xmlns="http://www.w3.org/2000/svg" version="1.1" viewBox="0 0 800 800">
  <defs>
    <style>
      .cls-1 {
        fill: #044b59;
        stroke-width: 0px;
      }
    </style>
  </defs>
  <path class="cls-1" d="M730,385.1l-100-200c-1.4-2.8-3.2-5.3-5.5-7.5-6.2-7-15.2-10.9-24.5-10.9h-166.7v-66.7c0-18.4-14.9-33.3-33.3-33.3s-33.3,14.9-33.3,33.3v66.7h-166.7c-9.3,0-18.2,4-24.4,10.9-2.2,2.2-4.1,4.7-5.5,7.5l-100,200c-2.3,4.6-3.4,9.7-3.3,14.9h-.2c0,73.6,59.7,133.3,133.3,133.3s133.3-59.7,133.3-133.3h-.3c0-5.2-1.1-10.3-3.3-14.9l-75.7-151.8h112.7v433.3h-166.7c-18.4,0-33.3,14.9-33.3,33.3s14.9,33.3,33.3,33.3h400c18.4,0,33.3-14.9,33.3-33.3s-14.9-33.3-33.3-33.3h-166.7V233.3h112.7l-75.9,151.8c-2.3,4.6-3.4,9.7-3.3,14.9h-.2c0,73.6,59.7,133.3,133.3,133.3s133.3-59.7,133.3-133.3h-.3c.2-5.1-.8-10.2-3-14.9ZM262.7,400h-125.5l62.7-125.5,62.7,125.5ZM537.3,400l62.7-125.5,62.7,125.5h-125.5Z"/>
</svg>