<?xml version="1.0" encoding="UTF-8"?>
<svg id="Layer_2" data-name="Layer 2" xmlns="http://www.w3.org/2000/svg" width="96" height="83.7" viewBox="0 0 96 83.7">
  <defs>
    <style>
      .cls-1 {
        fill: #044b59;
        fill-rule: evenodd;
        stroke-width: 0px;
      }
    </style>
  </defs>
  <path class="cls-1" d="M26.37,23.13l-7.69-5.39-13.37,19.09,7.69,5.38,13.37-19.09h0ZM41.2,57.92h0s0-.01,0-.01h0s0-.01,0-.01h0s0,0,0,0h0s0,0,0,0h0s-.01-.02-.01-.02h0s0,0,0,0h0s0-.01,0-.01h0s0-.01,0-.01h0s0-.01,0-.01h0s0,0,0,0h0s0-.01,0-.01h0s0,0,0,0h0s0,0,0,0h0s0,0,0,0h0s0,0,0,0h0s0,0,0,0h0s0,0,0,0h0s0,0,0,0h0s0,0,0,0h0s0,0,0,0h0s0,0,0,0h0s-.01-.02-.01-.02l-.02-.02h-.01s-.02-.03-.02-.03l-.06-.05h-.02s0-.02,0-.02h-.01s-.02-.03-.02-.03h-.01s0-.02,0-.02l-.04-.03h0s-.01-.01-.01-.01h-.02s-.02-.03-.02-.03h0s-.02-.02-.02-.02h-.02s-.01-.02-.01-.02h-.01s-.04-.04-.04-.04h0s-.01-.01-.01-.01h-.02s-.01-.02-.01-.02h0s-.02-.02-.02-.02l-.07-.04h-.01s0-.01,0-.01l-.04-.02h-.01s-.01-.01-.01-.01h-.02s-.02-.03-.02-.03h-.02s-.02-.02-.02-.02h-.01s0-.01,0-.01h-.02s-.02-.02-.02-.02h-.01s-.01-.01-.01-.01h-.02s-.02-.02-.02-.02h-.02s-.02-.02-.02-.02h-.01s-.01-.01-.01-.01h-.02s-.02-.02-.02-.02h0s-.02-.01-.02-.01h-.02s-.02-.02-.02-.02h0s-.02-.01-.02-.01h-.02s0-.01,0-.01h-.01s-.02-.02-.02-.02h-.02s-.02-.02-.02-.02l-.03-.02h-.01s-.02-.01-.02-.01h-.02s0-.01,0-.01l-.04-.02h-.01s-.03-.02-.03-.02v-.04s0-.02,0-.02h0v-.04s0-.02,0-.02h0v-.04s0-.02,0-.02v-.02h0v-.03s0-.02,0-.02v-.02h0v-.02s0-.02,0-.02v-.02s0,0,0,0h0v-.04s0-.02,0-.02h0v-.05h0v-.04s0-.02,0-.02v-.02h0v-.05h0v-.04s0-.02,0-.02v-.02h0v-.07h0v-.05h0v-.04s0-.02,0-.02v-.02h0v-.05h0v-.07h0v-.05h0v-.07h0v-.04s0-.02,0-.02v-.08h0v-.06s-.01-.06-.01-.06h0s0-.06,0-.06h0v-.06h0v-.06h0v-.06h0v-.06s-.01,0-.01,0v-.06h0v-.06s0,0,0,0v-.06s-.01,0-.01,0v-.06s-.01,0-.01,0v-.06h-.01v-.06s-.01,0-.01,0v-.06h-.01v-.06h-.01v-.06s-.01,0-.01,0v-.06s-.01,0-.01,0v-.06s-.01,0-.01,0v-.06s-.02,0-.02,0l-.02-.06h0s-.01-.06-.01-.06h0s-.02-.06-.02-.06h0s-.02-.06-.02-.06h0s-.04-.12-.04-.12h0s-.02-.06-.02-.06l-.02-.05h0s-.03-.06-.03-.06h0s-.02-.06-.02-.06h0s-.02-.06-.02-.06h0s-.03-.06-.03-.06h0s-.02-.06-.02-.06h0s-.03-.06-.03-.06h0s-.03-.06-.03-.06h0s-.02-.06-.02-.06h0s-.03-.05-.03-.05h0s-.03-.06-.03-.06l-.03-.05h0s-.03-.05-.03-.05h0s-.03-.05-.03-.05h0s-.03-.05-.03-.05h0s-.03-.05-.03-.05h0s-.03-.05-.03-.05h0s-.03-.05-.03-.05h0s-.03-.05-.03-.05h0s-.03-.05-.03-.05h0s-.03-.05-.03-.05h0s-.03-.05-.03-.05h0s-.03-.05-.03-.05h0s-.04-.06-.04-.06l-.04-.04h0s-.03-.05-.03-.05h0s-.04-.05-.04-.05h0s-.04-.05-.04-.05h0s-.04-.05-.04-.05h0s-.04-.05-.04-.05h0s-.04-.05-.04-.05h0s-.04-.05-.04-.05h0s-.04-.05-.04-.05h0s-.04-.05-.04-.05h0s-.04-.04-.04-.04h0s-.04-.05-.04-.05h0s-.04-.04-.04-.04h0c-.06-.07-.13-.13-.2-.18h0s0,0,0,0h-.02s-.01-.03-.01-.03h-.01s-.01-.02-.01-.02h-.01s-.01-.03-.01-.03h0s-.01-.01-.01-.01h-.01s-.02-.02-.02-.02h0s0-.01,0-.01h-.01s-.01-.02-.01-.02h-.01s-.01-.02-.01-.02h-.01s-.02-.02-.02-.02h0s0-.01,0-.01h-.02s-.01-.02-.01-.02h-.01s-.01-.02-.01-.02h-.01s-.02-.02-.02-.02h0s-.02-.01-.02-.01h-.01s-.01-.02-.01-.02h-.01s-.02-.02-.02-.02h-.02s-.02-.02-.02-.02h0s-.02-.01-.02-.01h-.01s-.01-.02-.01-.02h0s-.01,0-.01,0h-.02s-.01-.02-.01-.02h-.01s-.01-.02-.01-.02h-.02s-.02-.02-.02-.02h0s-.01,0-.01,0h-.01s-.01-.02-.01-.02h-.01s0-.01,0-.01h-.01s-.01-.02-.01-.02h0l-.04-.02h-.01s-.01-.02-.01-.02h0s-.01,0-.01,0h-.01s-.02-.02-.02-.02h-.01s-.02-.02-.02-.02h-.02s-.01-.02-.01-.02h0s0,0,0,0h-.02s-.02-.02-.02-.02h-.01s0,0,0,0h-.02s-.02-.02-.02-.02h-.01s0-.04,0-.04h0s0-.03,0-.03v-.03s.01-.02.01-.02h0s0-.03,0-.03v-.05s.02-.03.02-.03h0s0-.03,0-.03v-.03s.04-.14.04-.14h0c.01-.08.02-.15.04-.22v-.04s0-.01,0-.01v-.03s0-.02,0-.02h0v-.09s.01-.03.01-.03h0v-.06s0-.02,0-.02h0v-.06s0-.03,0-.03v-.03h0v-.05s0-.02,0-.02h0s0-.14,0-.14v-.05h0v-.06h0v-.13h0v-.12h0v-.05s0-.08,0-.08h0v-.06h0v-.06h0v-.06h0v-.06h0v-.06h0v-.06s0,0,0,0l-.02-.18h0l-.02-.12h0c-.01-.08-.03-.16-.05-.24h0s-.01-.06-.01-.06h0s-.01-.06-.01-.06h0s-.03-.12-.03-.12h0s-.05-.18-.05-.18h0c-.03-.08-.06-.16-.09-.24l-.02-.05h0s-.02-.06-.02-.06h0s-.04-.12-.04-.12h0s-.02-.06-.02-.06h0s-.02-.06-.02-.06h0s-.02-.06-.02-.06h0s-.03-.06-.03-.06l-.03-.05h0s-.03-.06-.03-.06h0s-.03-.06-.03-.06h0s-.02-.06-.02-.06h0s-.03-.05-.03-.05h0s-.03-.05-.03-.05h0s-.03-.06-.03-.06h0s-.03-.05-.03-.05h0s-.03-.05-.03-.05h0s-.03-.05-.03-.05h0s-.03-.05-.03-.05h0s-.03-.05-.03-.05h0s-.03-.05-.03-.05h0s-.03-.05-.03-.05h0s-.03-.05-.03-.05h0s-.03-.05-.03-.05h0s-.04-.05-.04-.05h0s-.03-.05-.03-.05h0s-.03-.05-.03-.05l-.03-.05h0s0-.01,0-.01l-.04-.04h0s-.04-.05-.04-.05h0s-.04-.05-.04-.05h0s-.04-.05-.04-.05h0s-.04-.05-.04-.05h0s-.04-.05-.04-.05l-.04-.04h0s0,0,0,0l-.04-.04h0s-.04-.04-.04-.04h0s-.04-.05-.04-.05h0c-.06-.07-.13-.13-.2-.18h0s-.04-.04-.04-.04h0s-.1-.08-.1-.08h0s-.05-.04-.05-.04h0s-.05-.04-.05-.04h0s-.05-.04-.05-.04l-.05-.04h0s-.05-.04-.05-.04h-.01s-.04-.04-.04-.04h0s-.04-.04-.04-.04h-.01s-.04-.04-.04-.04h-.01s-.04-.03-.04-.03h-.01s-.04-.03-.04-.03h-.01s-.04-.03-.04-.03h-.02s-.03-.03-.03-.03h-.02s-.04-.03-.04-.03h-.02s-.03-.03-.03-.03h-.03s-.03-.03-.03-.03h-.03s-.03-.03-.03-.03l-.03-.02h-.03s-.03-.03-.03-.03h-.03s-.03-.03-.03-.03h-.03s-.03-.03-.03-.03h-.02s-.04-.03-.04-.03h-.02s-.04-.03-.04-.03h-.02s-.04-.02-.04-.02h-.01s-.04-.02-.04-.02h-.01s-.04-.02-.04-.02h-.01s-.05-.02-.05-.02h-.01s-.05-.02-.05-.02h0s-.05-.02-.05-.02h0s-.06-.02-.06-.02h0s-.06-.02-.06-.02h0l-.06-.02h0l-.06-.02h0l-.06-.02h0s-.06-.01-.06-.01h0s-.06-.02-.06-.02h0s-.05-.01-.05-.01h-.01s-.05-.01-.05-.01h0s-.05-.01-.05-.01h-.01s-.04-.01-.04-.01h-.01s-.04-.01-.04-.01h-.02s-.04-.01-.04-.01h-.06s-.02-.01-.02-.01h-.04s-.03-.01-.03-.01h-.03s-.03,0-.03,0h-.04s-.03,0-.03,0h-.03s-.06-.01-.06-.01h-.04s-.03,0-.03,0h-.03s-.03,0-.03,0h-.04s-.02,0-.02,0h-.04s-.02,0-.02,0h-.04s-.01,0-.01,0h-.04s-.02,0-.02,0h-.05s-.01,0-.01,0h-.04s-.01,0-.01,0h-.18s0,0,0,0h-.05s0,0,0,0h-.06s-.06,0-.06,0h-.06s0,0,0,0h-.06s0,0,0,0h-.06s0,0,0,0h-.06s0,0,0,0h-.06s-.01,0-.01,0h-.05s-.01,0-.01,0h-.05s-.01,0-.01,0h-.05s-.01.01-.01.01h-.05s-.02,0-.02,0h-.04s-.02,0-.02,0h-.04s-.02.01-.02.01h-.04s-.02.01-.02.01h-.04s-.02.01-.02.01h-.04s-.03.01-.03.01h-.03s-.03.01-.03.01h-.03s-.03.02-.03.02h-.03s-.03.01-.03.01h-.03s-.06.02-.06.02h-.04s-.02.02-.02.02l-.06.02h-.04s-.02.02-.02.02h-.04s-.01.02-.01.02c-.1.03-.19.07-.29.1l-.05.02h0s-.16.07-.16.07h0s-.05.03-.05.03h0s-.05.03-.05.03h0s-.11.05-.11.05h0l-.11.06h0s-.05.03-.05.03h0s-.05.03-.05.03h0s-.04.03-.04.03l-.05.03h-.01s-.04.03-.04.03h-.01c-.07.05-.13.09-.19.13h-.02s-.03.03-.03.03c-.11.08-.22.16-.32.24l-.02.02-.05.04-.03.03h-.01s-.14.14-.14.14l-.04.03h0s-.04.05-.04.05h-.01s-.03.04-.03.04h-.01s-.04.05-.04.05h0s0,0,0,0h0s0-.01,0-.01h0s-.01-.02-.01-.02h0s-.06-.08-.06-.08h0s0-.02,0-.02h0s-.01-.02-.01-.02h0s0-.01,0-.01h0s0-.02,0-.02h0s-.01-.03-.01-.03h0s0-.01,0-.01h0s0-.02,0-.02h0s0-.01,0-.01h0s-.01-.02-.01-.02h0s0-.01,0-.01h0s0,0,0,0h0s0-.02,0-.02h-.01s0-.01,0-.01h0s0-.02,0-.02h0s0-.01,0-.01h0s0-.02,0-.02h0s0-.02,0-.02h-.01s0-.02,0-.02h0s0-.01,0-.01h0s0,0,0,0h0s0-.02,0-.02h0s0-.02,0-.02h0s0-.01,0-.01h0s-.01-.01-.01-.01h0s-.02-.02-.02-.02h0s0-.02,0-.02h0c-.07-.06-.13-.12-.2-.18h0s-.04-.04-.04-.04h0s-.05-.04-.05-.04h0s-.05-.04-.05-.04h0s-.05-.04-.05-.04h0l-.05-.04h0l-.05-.04h0s-.05-.04-.05-.04h0s-.04-.04-.04-.04h0s-.04-.04-.04-.04h-.01s-.04-.04-.04-.04h-.01s-.04-.04-.04-.04h-.01s-.04-.03-.04-.03h-.01s-.04-.03-.04-.03h-.02s-.04-.03-.04-.03h-.01s-.04-.03-.04-.03h-.02s-.03-.03-.03-.03h-.03s-.03-.03-.03-.03h-.02s-.03-.03-.03-.03h-.03s-.03-.03-.03-.03l-.06-.03-.03-.02h-.02s-.04-.03-.04-.03h-.02s-.04-.03-.04-.03h-.02s-.04-.02-.04-.02h-.01s-.04-.03-.04-.03h-.02s-.04-.03-.04-.03h-.02s-.04-.02-.04-.02h-.01s-.04-.02-.04-.02h-.01s-.05-.02-.05-.02h0s-.05-.02-.05-.02h0s-.05-.02-.05-.02h0s-.06-.02-.06-.02h0s-.06-.02-.06-.02h0l-.06-.02-.06-.02h-.06s0-.02,0-.02h-.06s0-.02,0-.02h-.05s0-.01,0-.01h-.05s-.01-.01-.01-.01h-.05s-.01-.01-.01-.01h-.04s-.01-.01-.01-.01h-.05s-.02-.01-.02-.01h-.04s-.02-.01-.02-.01h-.04s-.06-.02-.06-.02h-.02s-.04,0-.04,0h-.03s-.03,0-.03,0h-.03s-.03,0-.03,0h-.03s-.03,0-.03,0h-.06s-.03,0-.03,0h-.03s-.04,0-.04,0h-.02s-.04,0-.04,0h-.02s-.04,0-.04,0h-.06s-.02,0-.02,0h-.04s-.02,0-.02,0h-.04s-.01,0-.01,0h-.05s-.01,0-.01,0h-.18s0,0,0,0h-.06s0,0,0,0h-.06s0,0,0,0h-.06s-.04,0-.04,0h-.05s-.03,0-.03,0h-.02s-.04,0-.04,0h0s-.05,0-.05,0h0s-.04,0-.04,0h-.02s-.03,0-.03,0h-.03s-.01,0-.01,0h-.05s0,0,0,0h-.05s-.01.01-.01.01h-.03s-.03,0-.03,0h-.02s-.04,0-.04,0h0s-.04,0-.04,0h-.01s-.04,0-.04,0h-.02s-.03,0-.03,0h-.04s0,0,0,0h-.05s0,.01,0,.01h-.04s-.01.01-.01.01h-.03s-.03.01-.03.01h-.02s-.04.02-.04.02h-.05s0,.01,0,.01h-.04s-.02.02-.02.02h-.03s-.09.03-.09.03h0s-.05.01-.05.01h-.01s-.03.01-.03.01h-.03s-.01.01-.01.01h-.04s0,.01,0,.01l-.18.07-.05.02h0s-.04.02-.04.02l-.04.02h-.03s-.01.02-.01.02l-.08.04h0s-.01,0-.01,0h-.03s-.03.03-.03.03h-.02s-.09.05-.09.05h0s-.04.02-.04.02l-.04.02-.03.02h-.01s-.04.03-.04.03h0s-.04.03-.04.03l-.12.07h0s-.04.03-.04.03h0s-.03.03-.03.03l-.07.05h-.01s-.08.06-.08.06h-.01s-.03.03-.03.03l-.07.05h0s-.04.03-.04.03h0s-.03.03-.03.03l-1.97-3.33,10.15-14.49,1.9.84c-1.11.52-2.01,1.09-2.59,2.14-1.16.93-1.68,2.26-1.16,4.85v.05s.02.05.02.05v.05c.97,4.47,3.61,5.3,7.03,4.57,1.83-.4,3.82-1.35,5.84-2.32,2.6-1.24,5.26-2.52,6.68-2.19l16.98,12.42,1.77,1.24c.18.13.33.3.44.49.11.2.18.43.19.65v.15s.01,0,.01,0h0c-.02.08-.03.15-.04.23h0v.02h0s-.03.11-.03.11h0s0,0,0,0h0s0,0,0,0c-.01.04-.02.08-.04.12l-.02.05c-.23.27-.55.44-.89.5-.39.07-.8,0-1.14-.24l-1.36-.95-2.54,3.64,1.36.95c.25.18.39.4.42.65.04.37-.1.81-.39,1.23l-.36.52c-.06.07-.11.14-.16.21-.16.13-.57.19-1.04.18-.77,0-1.55-.23-2.04-.57l-1.36-.95-.43.61c-.62.15-1.16.56-1.47,1.17-.2.4-.27.84-.22,1.25l-.43.61,1.36.95c.33.23.54.59.61.98.07.39,0,.8-.24,1.14l-.48.68c-.79,1.13-2.41.21-3.58-.61-.31-.22-.63-.45-.9-.66-.24-.18-.47-.35-.68-.5l-1.36-.95-2.54,3.64,1.36.95c.33.23.54.59.61.98.07.39,0,.8-.24,1.13l-.48.68c-.23.33-.59.54-.97.61-.39.07-.8,0-1.14-.24l-3.95-2.76.04-.05.05-.06.06-.06.05-.06.05-.06.06-.06.04-.05h0s0,0,0,0c.05-.05.1-.11.15-.17h0s0-.01,0-.01c.11-.13.22-.27.31-.41h0s.03-.05.03-.05h0c.29-.45.52-.93.66-1.42h0s.05-.18.05-.18h0s.01-.06.01-.06l.03-.12h0s.01-.06.01-.06h0s0-.06,0-.06v-.06s.01-.02.01-.02l.02-.1v-.06s.01-.02.01-.02v-.04s0-.03,0-.03v-.03s.01-.03.01-.03v-.09s.02-.03.02-.03v-.06s0-.03,0-.03v-.1s0-.02,0-.02v-.11s0-.02,0-.02v-.05s0-.01,0-.01v-.05h0v-.06h0v-.06h0v-.06h0s0-.07,0-.07h0s0-.06,0-.06h0v-.06h0v-.06s0,0,0,0v-.06h0v-.06h0v-.06h0v-.06h0v-.06h0v-.06s0,0,0,0v-.06h0v-.06h-.01v-.06s-.01,0-.01,0v-.06h0v-.06s-.01,0-.01,0v-.06s-.01,0-.01,0v-.06s-.01,0-.01,0v-.06s-.01,0-.01,0v-.06s-.01,0-.01,0v-.06s-.01,0-.01,0v-.06s-.01,0-.01,0v-.06s-.02,0-.02,0v-.06s-.02,0-.02,0v-.06s-.01,0-.01,0l-.02-.06h0s-.02-.06-.02-.06h0s-.02-.06-.02-.06h0s-.02-.06-.02-.06h0s-.02-.06-.02-.06h0s-.02-.06-.02-.06h0s-.02-.06-.02-.06h0s-.02-.06-.02-.06h0s-.02-.06-.02-.06h0s-.02-.06-.02-.06h0s-.02-.06-.02-.06h0s-.02-.06-.02-.06h0s-.03-.06-.03-.06h0s-.02-.06-.02-.06h0s-.02-.05-.02-.05h0s-.03-.06-.03-.06h0s-.03-.05-.03-.05h0s-.03-.06-.03-.06h0s-.03-.06-.03-.06h0s-.03-.05-.03-.05h0s-.03-.05-.03-.05h0s-.07-.11-.07-.11h0s-.03-.05-.03-.05h0s-.03-.05-.03-.05h0s-.03-.05-.03-.05l-.04-.05h0s-.04-.05-.04-.05h0c-.06-.09-.13-.17-.19-.25h0s-.12-.15-.12-.15h0c-.06-.07-.12-.13-.18-.19h0s-.04-.05-.04-.05h0s-.04-.05-.04-.05l-.05-.05h0ZM38.13,69.13l-.06.07c-.96,1.02-2.25,1.58-3.57,1.66-1.3.08-2.64-.33-3.71-1.23-.08-.06-.15-.13-.22-.2-.79-.74-1.31-1.69-1.53-2.69-1.06-.11-2.1-.54-2.96-1.31l-.1-.09c-.79-.74-1.31-1.69-1.54-2.69-1.06-.11-2.1-.54-2.96-1.31l-.1-.09c-.8-.75-1.31-1.69-1.54-2.69-1.07-.11-2.1-.54-2.96-1.31l-.1-.09c-1.02-.96-1.59-2.25-1.66-3.57-.08-1.35.36-2.74,1.33-3.83.33-.37.66-.73.99-1.1l-1.61-2.73-.45.65c-.7,1.01-2.09,1.25-3.09.55L.95,39.2c-1-.7-1.25-2.09-.54-3.09l15.91-22.73c.7-1.01,2.09-1.25,3.09-.55l11.33,7.93c.96.67,1.23,1.96.64,2.95l4.83,2.13,6.6-4.25c.41-.26.9-.39,1.42-.34l20.18,2c-.28-.9.03-1.92.85-2.5l11.33-7.93c1.01-.7,2.4-.46,3.1.55l15.91,22.73c.7,1.01.45,2.39-.55,3.09l-11.33,7.93c-1.01.7-2.39.46-3.1-.55l-.57-.82-11.14,8.45c-.09.08-.19.15-.29.21-.73.66-1.6,1.12-2.52,1.35-.03,1.2-.45,2.43-1.2,3.52l-.51.72c-.96,1.34-2.54,1.97-4.19,2.07-.02,1.14-.37,2.29-1.08,3.3l-.48.68c-1.99,2.84-4.35,3.01-6.51,2.26-.18.6-.46,1.18-.84,1.72l-.48.68c-.94,1.35-2.35,2.19-3.85,2.45-1.49.26-3.1-.04-4.45-.99l-4.38-3.07h0ZM37.32,60.97c-.14.04-.27.12-.37.23h0s0,.01,0,.01h0s-3.37,3.79-3.37,3.79h0s0,.02,0,.02c-.15.17-.21.39-.2.6.01.19.09.39.24.54l.09.07c.17.13.37.19.58.18.19-.01.39-.09.54-.24l2.95-3.31.46-.51h0v-.02h.01s.05-.07.07-.11h0l.03-.06h0s0-.02,0-.02h0s.02-.05.02-.05h0s.01-.03.01-.03h0s0,0,0,0h0s0-.01,0-.01h0s0-.03,0-.03h0s0-.02,0-.02h0v-.02h0v-.02h0s0-.04,0-.04h0v-.02h0s0-.02,0-.02h0v-.02h0v-.02h0v-.02h0v-.02h0v-.02h0v-.02h0v-.02h0v-.02h0v-.02h0s0,0,0,0h0v-.02h0v-.02h0s0-.03,0-.03h0s0-.03,0-.03h0s0-.02,0-.02h0s0,0,0,0h0s0-.02,0-.02h0v-.02h0s0,0,0,0h0s0-.02,0-.02h0s0-.03,0-.03h0v-.02h0s-.01-.04-.01-.04h0s0,0,0,0c-.02-.03-.04-.07-.06-.1h0s0,0,0,0h0s-.05-.07-.05-.07h0s-.04-.05-.07-.07h0s0-.01,0-.01h0s0,0,0,0h0s0,0,0,0h0s0,0,0,0h0s0,0,0,0h0s0,0,0,0h0s0,0,0,0h0s0,0,0,0h0s0,0,0,0h0s0,0,0,0h0s-.02-.01-.02-.01h0s0-.01,0-.01h0s0,0,0,0h0s0,0,0,0h0s0,0,0,0h0s-.03-.02-.03-.02h0s0,0,0,0h0s0,0,0,0h0s0,0,0,0h0s0,0,0,0h-.01s0,0,0,0h0s0,0,0,0h-.01s0,0,0,0h0s0,0,0,0h0s0,0,0,0h-.01s0,0,0,0h0s0,0,0,0h0s0,0,0,0h0s0,0,0,0h0s0,0,0,0h-.02s0,0,0,0h0s0,0,0,0h-.01s0,0,0,0h0s0,0,0,0h-.02s-.01,0-.01,0h0s-.01,0-.01,0h-.02s-.01,0-.01,0h0s-.01,0-.01,0h-.04s0,0,0,0h-.01s0,0,0,0h-.03s0,0,0,0h-.01s-.01,0-.01,0h0s0,0,0,0h-.01s0,0,0,0h0s0,0,0,0h-.01s0,0,0,0h-.01s0,0,0,0h0s0,0,0,0h-.03ZM35.02,55.48l-.07-.07-.04-.03h0s-.06-.04-.06-.04h-.02s0,0,0,0l-.04-.02h0s0,0,0,0h0s-.03-.01-.03-.01h0s-.01,0-.01,0h0s0,0,0,0h-.03s0-.02,0-.02h0s0,0,0,0h-.01s0,0,0,0h0s0,0,0,0h0s-.01,0-.01,0h0s0,0,0,0h-.01s0,0,0,0h0s0,0,0,0h0s0,0,0,0h0s0,0,0,0h0s0,0,0,0h0s0,0,0,0h0s0,0,0,0h0s0,0,0,0h-.02s-.01,0-.01,0h0s-.01,0-.01,0h-.02s0,0,0,0h-.07s-.01,0-.01,0h-.02s-.01,0-.01,0h-.02s0,0,0,0h0s-.01,0-.01,0h0s0,0,0,0h0s0,0,0,0h-.01s0,0,0,0h0s0,0,0,0h0s0,0,0,0h-.01s-.01,0-.01,0h-.01s0,0,0,0h0s0,0,0,0h-.01s0,0,0,0h0s0,0,0,0h0s0,0,0,0h0s0,0,0,0h0s0,0,0,0h0s0,0,0,0h0s0,0,0,0h0s0,0,0,0h0s0,0,0,0h0s0,0,0,0h0s0,0,0,0h0s0,0,0,0h0s0,0,0,0h0s0,0,0,0h0s0,0,0,0h0s0,0,0,0h0s0,0,0,0h0s0,0,0,0h0s0,0,0,0h0s0,0,0,0h0s0,0,0,0h0s0,0,0,0h0s0,0,0,0h0s0,0,0,0h0s0,.01,0,.01h0s0,0,0,0h0s0,0,0,0h-.01s0,.01,0,.01h0s0,0,0,0h0s0,.01,0,.01h0s0,.01,0,.01h0s0,.01,0,.01h0s0,.01,0,.01h0s0,0,0,0h0s0,.01,0,.01l-4.84,5.44c-.13.17-.19.37-.18.58,0,.19.09.39.24.54l.08.08c.17.13.38.19.58.18.21-.01.41-.11.57-.27h0s3.37-3.79,3.37-3.79h0s.04-.05.04-.05l1.4-1.57h0s0-.01,0-.01h0s0-.02,0-.02h0s0,0,0,0h0s0-.02,0-.02h0s0-.02,0-.02h0s0,0,0,0h0s0-.02,0-.02h0s0-.02,0-.02h0s0-.02,0-.02h0s0-.02,0-.02h0v-.02h0s0-.02,0-.02h0s0,0,0,0h0s0,0,0,0h0s0-.02,0-.02h0s0-.02,0-.02h0s0-.02,0-.02h0s0-.02,0-.02h0s0-.02,0-.02h0v-.02h0v-.02h0s0-.02,0-.02h0v-.02h0s0-.02,0-.02h0v-.02h0s0-.02,0-.02h0v-.02h0v-.02h0v-.02h0v-.02h0v-.02h0v-.02h0s0-.02,0-.02h0v-.02h0s0-.02,0-.02h0v-.02h0v-.02h0s0-.01,0-.01h0s0-.01,0-.01h0v-.02h0s0-.02,0-.02h0s0-.01,0-.01h0v-.02h0s0,0,0,0h0v-.02h0s0,0,0,0h0v-.02h0s0,0,0,0h0s0-.02,0-.02h0v-.02h0s0,0,0,0h0s0-.01,0-.01h0s0-.02,0-.02h0s0-.02,0-.02h0s0-.02,0-.02h0s0-.02,0-.02h0s0,0,0,0h0s0,0,0,0h0s0-.01,0-.01h0s0-.01,0-.01h0s0-.01,0-.01h0s0-.01,0-.01h0s0,0,0,0h0s0-.02,0-.02h0s0-.01,0-.01h0s0,0,0,0h0s0,0,0,0h0s0,0,0,0h0s0-.01,0-.01h0s0,0,0,0h0s0-.01,0-.01h0s0,0,0,0h0s0-.01,0-.01h0ZM31.09,49.28l-.11.12-3.16,3.55-.07.08-3.3,3.71-.1.12c-.13.17-.19.37-.17.58,0,.19.09.39.24.54l.09.08c.16.13.37.18.57.17.2-.01.41-.1.56-.26h0s0-.02,0-.02h0l.13-.15,4.63-5.21.09-.1,1.86-2.09h0s0-.02,0-.02h0s0-.02,0-.02h0s0,0,0,0h0s0-.01,0-.01h0s0,0,0,0h0s0-.01,0-.01h0s0-.01,0-.01h0s0-.02,0-.02h0v-.02h0s0,0,0,0h0s0,0,0,0h0s0-.02,0-.02h0s0-.01,0-.01h0s0-.02,0-.02h0s0-.02,0-.02h0s0-.02,0-.02h0s0-.02,0-.02h0s0,0,0,0h0s0-.02,0-.02h0v-.04s0,0,0,0h0s0-.02,0-.02h0v-.02h0s0-.02,0-.02h0s0-.03,0-.03h0s0-.02,0-.02h0v-.02h0v-.02h0s0-.08,0-.12h0v-.02h0v-.03h0s0-.03,0-.03h0s0-.04,0-.04h0v-.03h0v-.03h-.01s0-.02,0-.02h0s0-.02,0-.02h0s0,0,0,0h0s0,0,0,0h0v-.02h0s0-.02,0-.02h0s0-.02,0-.02h0s0,0,0,0h0s0-.02,0-.02h0s0,0,0,0h0s0,0,0,0h0s0-.02,0-.02h0s0,0,0,0h0s0,0,0,0h0s0-.02,0-.02h0s0,0,0,0h0s0-.02,0-.02h0s0-.01,0-.01h0s0,0,0,0h0s0,0,0,0h0s0,0,0,0h0s0-.01,0-.01h0s0,0,0,0h0s0-.01,0-.01h0s0,0,0,0h0s0-.01,0-.01h0s0,0,0,0h0s0,0,0,0h0s0,0,0,0h0s0,0,0,0h0s0,0,0,0h0s0,0,0,0h0s0,0,0,0h0s0,0,0,0h0s-.08-.08-.08-.08h0s-.01-.01-.01-.01h0s0,0,0,0h0s0,0,0,0h0s0,0,0,0h0s0,0,0,0h0s0,0,0,0h0s0,0,0,0h0s0,0,0,0h0s0,0,0,0h0s0,0,0,0h0s0,0,0,0h0s0,0,0,0h0s0,0,0,0h0s0,0,0,0h-.01s-.01,0-.01,0h0s0,0,0,0h0s-.01,0-.01,0h0s0,0,0,0h0s0,0,0,0h0s0,0,0,0h0s0,0,0,0h0s-.01,0-.01,0h0s-.01,0-.01,0h0s0,0,0,0h0s0,0,0,0h-.01s0,0,0,0h0s0,0,0,0h-.01s0,0,0,0h0s0,0,0,0h0s0,0,0,0h0s0,0,0,0h0s0,0,0,0h-.02s0,0,0,0h0s0,0,0,0h-.02s0,0,0,0h-.02s0,0,0,0h0s-.01,0-.01,0h-.07s0,0,0,0h-.01s0,0,0,0h-.02s0,0,0,0h-.01s0,0,0,0h-.02s0,0,0,0h0s0,0,0,0h0s-.01,0-.01,0h-.01s0,0,0,0h0s0,0,0,0h0s0,0,0,0h0s0,0,0,0h0s0,0,0,0h0s0,0,0,0h0s0,0,0,0h0s0,0,0,0h-.01s0,0,0,0h0s0,0,0,0h0s0,0,0,0h0s0,0,0,0h0s0,0,0,0h0s0,0,0,0h0s0,0,0,0h0s0,0,0,0h0s0,0,0,0h-.01s-.01.01-.01.01h0s0,0,0,0h0s0,0,0,0h0s0,0,0,0h0s0,0,0,0h0s0,0,0,0h0s0,0,0,0h0s0,0,0,0h0s0,0,0,0h0s0,.01,0,.01h0s0,0,0,0h0s0,0,0,0h0s0,.01,0,.01h0s0,0,0,0h0s0,0,0,0h0s0,.01,0,.01h0s0,0,0,0h0s0,0,0,0h0s0,.01,0,.01h0ZM24.38,48.92l-.08-.07s-.08-.06-.13-.08h0s-.03-.01-.03-.01h0s-.03-.02-.03-.02h-.03s0-.01,0-.01h-.04s0-.01,0-.01h0s0,0,0,0h-.01s0,0,0,0h0s-.01,0-.01,0h-.01s0,0,0,0h0s0,0,0,0h-.01s0,0,0,0h0s0,0,0,0h-.01s0,0,0,0h0s0,0,0,0h0s0,0,0,0h0s0,0,0,0h-.01s0,0,0,0h-.02s0,0,0,0h-.12s-.01,0-.01,0h0s0,0,0,0h0s0,0,0,0h0s0,0,0,0h-.01s0,0,0,0h-.01s-.01,0-.01,0h0s0,0,0,0h-.01s0,0,0,0h0s0,0,0,0h0s0,0,0,0h0s0,0,0,0h0s0,0,0,0h0s0,0,0,0h0s0,0,0,0h0s0,0,0,0h0s0,0,0,0h-.01s0,0,0,0h0s0,0,0,0h0s0,0,0,0h0s0,0,0,0h-.01s0,0,0,0h0s-.01.01-.01.01h0s0,0,0,0h0s0,0,0,0h0s0,0,0,0h0s0,0,0,0h0s-.01,0-.01,0h0s0,0,0,0h0s0,0,0,0h0s0,0,0,0h0s0,0,0,0h0s0,0,0,0h0s0,0,0,0h0s0,0,0,0h0s0,0,0,0h0s0,0,0,0h0s0,0,0,0h0s0,0,0,0h0s0,0,0,0h0s0,0,0,0h0s0,.01,0,.01h0s0,.01,0,.01h0l-3.41,3.83c-.16.17-.22.4-.21.62.01.2.09.39.24.54l.08.07c.17.13.37.19.58.18.21-.01.41-.1.56-.27h0s0-.01,0-.01h0l.1-.12.1-.12.1-.12,3.09-3.47h0s0,0,0,0h0s0,0,0,0h0s0-.02,0-.02h0s0-.02,0-.02h0s0-.02,0-.02h0s0-.01,0-.01h0s0,0,0,0h0s0-.01,0-.01h0s0,0,0,0h0s0,0,0,0h0s0-.01,0-.01h0s0-.01,0-.01h0s0-.01,0-.01h0v-.02h0s0,0,0,0h0s0-.01,0-.01h0v-.02h0s0-.02,0-.02h0s0-.01,0-.01h0s0-.01,0-.01h0s0-.03,0-.03h0v-.02h0s0,0,0,0h0s0-.01,0-.01h0v-.02h0s0,0,0,0h0v-.02h0s0-.01,0-.01h0s0-.01,0-.01h0v-.02h0v-.02h0s0-.02,0-.02h0v-.02h0v-.02h0v-.02h0v-.02h0v-.02h0v-.02h0v-.02h0s0-.02,0-.02h0s0,0,0,0h0v-.02h0v-.02h0s0-.01,0-.01h0s0-.02,0-.02h0v-.02h0s0-.02,0-.02h0v-.02h0s0,0,0,0h0v-.02h0s0,0,0,0h0v-.02h0v-.02h0s0,0,0,0h0s0-.02,0-.02h0s0-.02,0-.02h0s0,0,0,0h0s0,0,0,0h0s0-.02,0-.02h0s0-.02,0-.02h0s0-.02,0-.02h0s0,0,0,0h0s0-.01,0-.01h0s0-.01,0-.01h0s0-.01,0-.01h0s0-.01,0-.01h0s0,0,0,0h0s0-.02,0-.02h0s0-.01,0-.01h0s0,0,0,0h0s0,0,0,0h0s0,0,0,0h0s0,0,0,0h0s0,0,0,0h0s0-.01,0-.01h0s0,0,0,0h0s0-.01,0-.01h0s0,0,0,0h0s0-.01,0-.01h0ZM77.32,17.75l-7.69,5.38,13.36,19.09,7.69-5.38-13.37-19.09h0ZM66.75,27.96l-22.18-2.2-8.82,5.68c-1.09.71-2.11,1.15-3,1.54-.95.41-1.58.69-1.43,1.49h0v.04c.25,1.11.9,1.32,1.74,1.14,1.35-.29,3.08-1.12,4.85-1.97,3.6-1.72,7.3-3.5,10.44-2.26.21.08.4.19.57.32,6.28,4.59,12.53,9.31,18.9,13.77.76.54,1.36,1.21,1.78,1.96h0s0,.01,0,.01h0s0,.01,0,.01h0s0,.02,0,.02h0s0,.01,0,.01h0s0,.01,0,.01h0s0,0,0,0h0s0,.01,0,.01h0s0,.01,0,.01h0s0,.01,0,.01h0s0,0,0,0h0s0,.01,0,.01h0s0,.01,0,.01h0s0,.01,0,.01h0s0,.01,0,.01h0s0,.01,0,.01h0s0,.01,0,.01h0s0,.01,0,.01h0s0,.02,0,.02h0s0,.01,0,.01h0s0,.02,0,.02h0s0,.01,0,.01h0s0,.01,0,.01h0s0,.02,0,.02h0s0,.01,0,.01h0s0,.02,0,.02h0s0,.01,0,.01h0s0,.01,0,.01h0s0,.01,0,.01h0s0,.02,0,.02h0s0,.01,0,.01h0s0,.02,0,.02h0s0,.01,0,.01h0v.02l7.12-5.4-10.21-14.58Z"/>
</svg>