<?xml version="1.0" encoding="UTF-8"?>
<svg id="cuenta" xmlns="http://www.w3.org/2000/svg" width="96" height="88.97" viewBox="0 0 96 88.97">
  <defs>
    <style>
      .cls-1 {
        fill= '#044b59';
        stroke-width: 0px;
      }
    </style>
  </defs>
  <g>
    <g>
      <path className="cls-1" d="M15.28,83.99c-7.1,0-12.87-5.77-12.87-12.87V17.86c0-7.1,5.77-12.87,12.87-12.87h65.44c7.1,0,12.87,5.77,12.87,12.87v53.26c0,7.1-5.77,12.87-12.87,12.87H15.28ZM15.28,10.56c-4.02,0-7.3,3.27-7.3,7.3v53.26c0,4.02,3.27,7.3,7.3,7.3h65.44c4.02,0,7.3-3.27,7.3-7.3V17.86c0-4.02-3.27-7.3-7.3-7.3H15.28Z"/>
      <path className="cls-1" d="M80.72,6.49c6.27,0,11.37,5.1,11.37,11.37v53.26c0,6.27-5.1,11.37-11.37,11.37H15.28c-6.27,0-11.37-5.1-11.37-11.37V17.86c0-6.27,5.1-11.37,11.37-11.37h65.44M15.28,79.91h65.44c4.85,0,8.8-3.95,8.8-8.8V17.86c0-4.85-3.95-8.8-8.8-8.8H15.28c-4.85,0-8.8,3.95-8.8,8.8v53.26c0,4.85,3.95,8.8,8.8,8.8M80.72,3.49H15.28C7.36,3.49.91,9.93.91,17.86v53.26c0,7.92,6.45,14.37,14.37,14.37h65.44c7.92,0,14.37-6.45,14.37-14.37V17.86c0-7.92-6.45-14.37-14.37-14.37h0ZM15.28,76.91c-3.2,0-5.8-2.6-5.8-5.8V17.86c0-3.2,2.6-5.8,5.8-5.8h65.44c3.2,0,5.8,2.6,5.8,5.8v53.26c0,3.2-2.6,5.8-5.8,5.8H15.28Z"/>
    </g>
    <g>
      <path className="cls-1" d="M70.87,57.08c-6.89,0-12.5-5.61-12.5-12.5v-.19c0-6.89,5.61-12.5,12.5-12.5h19.93c1.54,0,2.79,1.25,2.79,2.79v19.62c0,1.54-1.25,2.79-2.79,2.79h-19.93ZM70.87,37.46c-3.82,0-6.93,3.11-6.93,6.93v.19c0,3.82,3.11,6.93,6.93,6.93h17.15v-14.05h-17.15Z"/>
      <path className="cls-1" d="M90.8,33.39c.71,0,1.29.58,1.29,1.29v19.62c0,.71-.58,1.29-1.29,1.29h-19.93c-6.06,0-11-4.93-11-11v-.19c0-6.06,4.93-11,11-11h19.93M70.87,53.01h18.65v-17.05h-18.65c-4.65,0-8.43,3.78-8.43,8.43v.19c0,4.65,3.78,8.43,8.43,8.43M90.8,30.39h-19.93c-7.72,0-14,6.28-14,14v.19c0,7.72,6.28,14,14,14h19.93c2.36,0,4.29-1.92,4.29-4.29v-19.62c0-2.36-1.92-4.29-4.29-4.29h0ZM70.87,50.01c-2.99,0-5.43-2.43-5.43-5.43v-.19c0-2.99,2.43-5.43,5.43-5.43h15.65v11.05h-15.65Z"/>
    </g>
    <path className="cls-1" d="M71.6,39.29c2.87,0,5.2,2.33,5.2,5.2s-2.33,5.2-5.2,5.2-5.2-2.33-5.2-5.2,2.33-5.2,5.2-5.2M71.6,47.11c1.45,0,2.63-1.18,2.63-2.63s-1.18-2.63-2.63-2.63-2.63,1.18-2.63,2.63,1.18,2.63,2.63,2.63M71.6,36.29c-4.52,0-8.2,3.68-8.2,8.2s3.68,8.2,8.2,8.2,8.2-3.68,8.2-8.2-3.68-8.2-8.2-8.2h0Z"/>
  </g>
  <g>
    <g>
      <g>
        <path className="cls-1" d="M5.2,19.08c-1.54,0-2.79-1.25-2.79-2.79s1.25-2.79,2.79-2.79h2.8c1.54,0,2.79,1.25,2.79,2.79s-1.25,2.79-2.79,2.79h-2.8Z"/>
        <path className="cls-1" d="M7.99,15c.71,0,1.29.58,1.29,1.29s-.58,1.29-1.29,1.29h-2.8c-.71,0-1.29-.58-1.29-1.29s.58-1.29,1.29-1.29h2.8M7.99,12h-2.8c-2.36,0-4.29,1.92-4.29,4.29s1.92,4.29,4.29,4.29h2.8c2.36,0,4.29-1.92,4.29-4.29s-1.92-4.29-4.29-4.29h0Z"/>
      </g>
      <g>
        <path className="cls-1" d="M70.86,19.08c-1.54,0-2.79-1.25-2.79-2.79s1.25-2.79,2.79-2.79h5.71c1.54,0,2.79,1.25,2.79,2.79s-1.25,2.79-2.79,2.79h-5.71ZM53.71,19.08c-1.54,0-2.79-1.25-2.79-2.79s1.25-2.79,2.79-2.79h5.71c1.54,0,2.79,1.25,2.79,2.79s-1.25,2.79-2.79,2.79h-5.71ZM36.57,19.08c-1.54,0-2.79-1.25-2.79-2.79s1.25-2.79,2.79-2.79h5.72c1.54,0,2.79,1.25,2.79,2.79s-1.25,2.79-2.79,2.79h-5.72ZM19.42,19.08c-1.54,0-2.79-1.25-2.79-2.79s1.25-2.79,2.79-2.79h5.71c1.54,0,2.79,1.25,2.79,2.79s-1.25,2.79-2.79,2.79h-5.71Z"/>
        <path className="cls-1" d="M76.57,15c.71,0,1.29.58,1.29,1.29s-.58,1.29-1.29,1.29h-5.71c-.71,0-1.29-.58-1.29-1.29s.58-1.29,1.29-1.29h5.71M59.43,15c.71,0,1.29.58,1.29,1.29s-.58,1.29-1.29,1.29h-5.71c-.71,0-1.29-.58-1.29-1.29s.58-1.29,1.29-1.29h5.71M42.29,15c.71,0,1.29.58,1.29,1.29s-.58,1.29-1.29,1.29h-5.72c-.71,0-1.29-.58-1.29-1.29s.58-1.29,1.29-1.29h5.72M25.14,15c.71,0,1.29.58,1.29,1.29s-.58,1.29-1.29,1.29h-5.71c-.71,0-1.29-.58-1.29-1.29s.58-1.29,1.29-1.29h5.71M76.57,12h-5.71c-2.36,0-4.29,1.92-4.29,4.29s1.92,4.29,4.29,4.29h5.71c2.36,0,4.29-1.92,4.29-4.29s-1.92-4.29-4.29-4.29h0ZM59.43,12h-5.71c-2.36,0-4.29,1.92-4.29,4.29s1.92,4.29,4.29,4.29h5.71c2.36,0,4.29-1.92,4.29-4.29s-1.92-4.29-4.29-4.29h0ZM42.29,12h-5.72c-2.36,0-4.29,1.92-4.29,4.29s1.92,4.29,4.29,4.29h5.72c2.36,0,4.29-1.92,4.29-4.29s-1.92-4.29-4.29-4.29h0ZM25.14,12h-5.71c-2.36,0-4.29,1.92-4.29,4.29s1.92,4.29,4.29,4.29h5.71c2.36,0,4.29-1.92,4.29-4.29s-1.92-4.29-4.29-4.29h0Z"/>
      </g>
      <g>
        <path className="cls-1" d="M88,19.08c-1.54,0-2.79-1.25-2.79-2.79s1.25-2.79,2.79-2.79h2.8c1.54,0,2.79,1.25,2.79,2.79s-1.25,2.79-2.79,2.79h-2.8Z"/>
        <path className="cls-1" d="M90.8,15c.71,0,1.29.58,1.29,1.29s-.58,1.29-1.29,1.29h-2.8c-.71,0-1.29-.58-1.29-1.29s.58-1.29,1.29-1.29h2.8M90.8,12h-2.8c-2.36,0-4.29,1.92-4.29,4.29s1.92,4.29,4.29,4.29h2.8c2.36,0,4.29-1.92,4.29-4.29s-1.92-4.29-4.29-4.29h0Z"/>
      </g>
    </g>
    <g>
      <g>
        <path className="cls-1" d="M5.2,75.47c-1.54,0-2.79-1.25-2.79-2.79s1.25-2.79,2.79-2.79h2.8c1.54,0,2.79,1.25,2.79,2.79s-1.25,2.79-2.79,2.79h-2.8Z"/>
        <path className="cls-1" d="M7.99,71.4c.71,0,1.29.58,1.29,1.29s-.58,1.29-1.29,1.29h-2.8c-.71,0-1.29-.58-1.29-1.29s.58-1.29,1.29-1.29h2.8M7.99,68.4h-2.8c-2.36,0-4.29,1.92-4.29,4.29s1.92,4.29,4.29,4.29h2.8c2.36,0,4.29-1.92,4.29-4.29s-1.92-4.29-4.29-4.29h0Z"/>
      </g>
      <g>
        <path className="cls-1" d="M70.86,75.47c-1.54,0-2.79-1.25-2.79-2.79s1.25-2.79,2.79-2.79h5.71c1.54,0,2.79,1.25,2.79,2.79s-1.25,2.79-2.79,2.79h-5.71ZM53.71,75.47c-1.54,0-2.79-1.25-2.79-2.79s1.25-2.79,2.79-2.79h5.71c1.54,0,2.79,1.25,2.79,2.79s-1.25,2.79-2.79,2.79h-5.71ZM36.57,75.47c-1.54,0-2.79-1.25-2.79-2.79s1.25-2.79,2.79-2.79h5.72c1.54,0,2.79,1.25,2.79,2.79s-1.25,2.79-2.79,2.79h-5.72ZM19.42,75.47c-1.54,0-2.79-1.25-2.79-2.79s1.25-2.79,2.79-2.79h5.71c1.54,0,2.79,1.25,2.79,2.79s-1.25,2.79-2.79,2.79h-5.71Z"/>
        <path className="cls-1" d="M76.57,71.4c.71,0,1.29.58,1.29,1.29s-.58,1.29-1.29,1.29h-5.71c-.71,0-1.29-.58-1.29-1.29s.58-1.29,1.29-1.29h5.71M59.43,71.4c.71,0,1.29.58,1.29,1.29s-.58,1.29-1.29,1.29h-5.71c-.71,0-1.29-.58-1.29-1.29s.58-1.29,1.29-1.29h5.71M42.29,71.4c.71,0,1.29.58,1.29,1.29s-.58,1.29-1.29,1.29h-5.72c-.71,0-1.29-.58-1.29-1.29s.58-1.29,1.29-1.29h5.72M25.14,71.4c.71,0,1.29.58,1.29,1.29s-.58,1.29-1.29,1.29h-5.71c-.71,0-1.29-.58-1.29-1.29s.58-1.29,1.29-1.29h5.71M76.57,68.4h-5.71c-2.36,0-4.29,1.92-4.29,4.29s1.92,4.29,4.29,4.29h5.71c2.36,0,4.29-1.92,4.29-4.29s-1.92-4.29-4.29-4.29h0ZM59.43,68.4h-5.71c-2.36,0-4.29,1.92-4.29,4.29s1.92,4.29,4.29,4.29h5.71c2.36,0,4.29-1.92,4.29-4.29s-1.92-4.29-4.29-4.29h0ZM42.29,68.4h-5.72c-2.36,0-4.29,1.92-4.29,4.29s1.92,4.29,4.29,4.29h5.72c2.36,0,4.29-1.92,4.29-4.29s-1.92-4.29-4.29-4.29h0ZM25.14,68.4h-5.71c-2.36,0-4.29,1.92-4.29,4.29s1.92,4.29,4.29,4.29h5.71c2.36,0,4.29-1.92,4.29-4.29s-1.92-4.29-4.29-4.29h0Z"/>
      </g>
      <g>
        <path className="cls-1" d="M88,75.47c-1.54,0-2.79-1.25-2.79-2.79s1.25-2.79,2.79-2.79h2.8c1.54,0,2.79,1.25,2.79,2.79s-1.25,2.79-2.79,2.79h-2.8Z"/>
        <path className="cls-1" d="M90.8,71.4c.71,0,1.29.58,1.29,1.29s-.58,1.29-1.29,1.29h-2.8c-.71,0-1.29-.58-1.29-1.29s.58-1.29,1.29-1.29h2.8M90.8,68.4h-2.8c-2.36,0-4.29,1.92-4.29,4.29s1.92,4.29,4.29,4.29h2.8c2.36,0,4.29-1.92,4.29-4.29s-1.92-4.29-4.29-4.29h0Z"/>
      </g>
    </g>
  </g>
</svg>