<?xml version="1.0" encoding="UTF-8"?>
<svg id="contratos" xmlns="http://www.w3.org/2000/svg" version="1.1" viewBox="0 0 96 89" width="20px">
  <g>
    <g>
      <path fill = "#044b59" d="M18.1,22.7c-1.2,0-2.2-.7-2.7-1.7-.4-1.1-.2-2.3.6-3l16-15.5c.5-.5,1.3-.8,2-.8s.8,0,1.1.2c1.1.4,1.8,1.5,1.8,2.6v15.5c0,1.5-1.3,2.8-2.9,2.8h-16,0ZM31.2,17.1v-5.9l-6.1,5.9h6.1Z"/>
      <path fill = "#044b59" d="M34.1,3.2c.2,0,.3,0,.5,0,.5.2.8.6.8,1.1v15.5c0,.7-.5,1.2-1.2,1.2h-16c-.5,0-.9-.3-1.1-.7s0-.9.3-1.3l16-15.5c.2-.2.5-.3.9-.3M21.1,18.7h11.8V7.3l-11.8,11.4M34.1,0h0C32.9,0,31.8.5,30.9,1.3l-16,15.5c-1.3,1.3-1.7,3.2-1,4.8.7,1.7,2.4,2.7,4.2,2.7h16c2.5,0,4.6-2,4.6-4.4V4.4c0-1.8-1.1-3.4-2.8-4.1C35.3.1,34.7,0,34.1,0h0ZM29.1,15.5l.4-.4v.4h-.4Z"/>
    </g>
    <g>
      <path fill = "#044b59" d="M17.7,87.5c-1.4,0-2.6-1.2-2.6-2.6V18.5c0-.7.3-1.4.8-1.8L30.2,2.3c.5-.5,1.1-.8,1.8-.8h46.3c1.4,0,2.6,1.2,2.6,2.6v80.8c0,1.4-1.2,2.6-2.6,2.6,0,0-60.7,0-60.7,0ZM75.7,82.3V6.7h-42.6l-12.9,12.9v62.7h55.5Z"/>
      <path fill = "#044b59" d="M78.3,3c.6,0,1.1.5,1.1,1.1v80.8c0,.6-.5,1.1-1.1,1.1H17.7c-.6,0-1.1-.5-1.1-1.1V18.5c0-.3.1-.6.3-.8L31.3,3.3c.2-.2.5-.3.8-.3h46.3M18.8,83.8h58.5V5.2h-44.8l-13.7,13.7v64.8M78.3,0h-46.3c-1.1,0-2.1.4-2.9,1.2l-14.4,14.4c-.8.8-1.2,1.8-1.2,2.9v66.4c0,2.3,1.8,4.1,4.1,4.1h60.7c2.3,0,4.1-1.8,4.1-4.1V4.1c0-2.3-1.8-4.1-4.1-4.1h0ZM33.7,8.2h40.5v72.6H21.8V20.2l12-12h0Z"/>
    </g>
  </g>
  <g>
    <g>
      <path fill = "#044b59" d="M41,34c-1.3,0-2.3-1.2-2.3-2.6s1-2.6,2.3-2.6h23.9c1.3,0,2.3,1.2,2.3,2.6s-1,2.6-2.3,2.6h-23.9Z"/>
      <path fill = "#044b59" d="M64.9,30.3c.5,0,1,.5,1,1.1s-.4,1.1-1,1.1h-23.9c-.5,0-1-.5-1-1.1s.4-1.1,1-1.1h23.9M64.9,27.3h-23.9c-2,0-3.6,1.8-3.6,4.1s1.6,4.1,3.6,4.1h23.9c2,0,3.6-1.8,3.6-4.1s-1.6-4.1-3.6-4.1h0Z"/>
    </g>
    <g>
      <path fill = "#044b59" d="M30.9,52.6c-1.3,0-2.3-1.2-2.3-2.6s1-2.6,2.3-2.6h33.9c1.3,0,2.3,1.2,2.3,2.6s-1,2.6-2.3,2.6H30.9Z"/>
      <path fill = "#044b59" d="M64.9,48.9c.5,0,1,.5,1,1.1s-.4,1.1-1,1.1H30.9c-.5,0-1-.5-1-1.1s.4-1.1,1-1.1h33.9M64.9,45.9H30.9c-2,0-3.6,1.8-3.6,4.1s1.6,4.1,3.6,4.1h33.9c2,0,3.6-1.8,3.6-4.1s-1.6-4.1-3.6-4.1h0Z"/>
    </g>
    <g>
      <path fill = "#044b59" d="M30.9,71.2c-1.3,0-2.3-1.2-2.3-2.6s1-2.6,2.3-2.6h21.6c1.3,0,2.3,1.2,2.3,2.6s-1,2.6-2.3,2.6c0,0-21.6,0-21.6,0Z"/>
      <path fill = "#044b59" d="M52.6,67.5c.5,0,1,.5,1,1.1s-.4,1.1-1,1.1h-21.6c-.5,0-1-.5-1-1.1s.4-1.1,1-1.1h21.6M52.6,64.5h-21.6c-2,0-3.6,1.8-3.6,4.1s1.6,4.1,3.6,4.1h21.6c2,0,3.6-1.8,3.6-4.1s-1.6-4.1-3.6-4.1h0Z"/>
    </g>
  </g>
</svg>