<?xml version="1.0" encoding="UTF-8"?>
<svg id="Layer_4" data-name="Layer 4" xmlns="http://www.w3.org/2000/svg" width="96" height="86.21" viewBox="0 0 96 86.21">
  <defs>
    <style>
      .cls-1 {
        fill: #044b59;
        stroke: #044b59;
        stroke-miterlimit: 10;
        stroke-width: 2px;
      }
    </style>
  </defs>
  <g>
    <path class="cls-1" d="M64.14,66.94c-6.28,0-12.56-1.38-17.35-4.14-4.85-2.79-7.52-6.58-7.52-10.66s2.67-7.86,7.52-10.66c9.57-5.51,25.13-5.51,34.69,0h0c4.85,2.8,7.52,6.58,7.52,10.66s-2.67,7.86-7.52,10.66c-4.78,2.76-11.06,4.14-17.35,4.14ZM64.14,39.59c-5.87,0-11.74,1.29-16.22,3.87-4.12,2.37-6.38,5.46-6.38,8.7s2.27,6.32,6.38,8.7c8.94,5.16,23.49,5.16,32.43,0,4.12-2.37,6.38-5.46,6.38-8.7s-2.27-6.32-6.38-8.7c-4.47-2.58-10.34-3.87-16.22-3.87Z"/>
    <g>
      <path class="cls-1" d="M64.14,76.08c-6.28,0-12.56-1.38-17.35-4.14-5-2.88-7.67-6.79-7.51-11,.02-.62.54-1.14,1.17-1.09.62.02,1.11.55,1.09,1.17-.13,3.33,2.14,6.51,6.38,8.95,8.94,5.16,23.49,5.16,32.43,0,4.12-2.37,6.38-5.46,6.38-8.7,0-.62.51-1.13,1.13-1.13s1.13.51,1.13,1.13c0,4.08-2.67,7.86-7.52,10.66-4.78,2.76-11.06,4.14-17.35,4.14Z"/>
      <g>
        <path class="cls-1" d="M40.4,62.58c-.62,0-1.13-.51-1.13-1.13v-9.13c0-.62.51-1.13,1.13-1.13s1.13.51,1.13,1.13v9.13c0,.63-.51,1.13-1.13,1.13Z"/>
        <path class="cls-1" d="M87.87,62.58c-.62,0-1.13-.51-1.13-1.13v-9.13c0-.62.51-1.13,1.13-1.13s1.13.51,1.13,1.13v9.13c0,.63-.51,1.13-1.13,1.13Z"/>
      </g>
    </g>
    <g>
      <path class="cls-1" d="M64.14,85.21c-6.28,0-12.56-1.38-17.35-4.14-5-2.88-7.67-6.79-7.51-11,.02-.62.54-1.14,1.17-1.09.62.02,1.11.55,1.09,1.17-.13,3.33,2.14,6.51,6.38,8.95,8.94,5.16,23.49,5.16,32.43,0,4.12-2.37,6.38-5.46,6.38-8.7,0-.63.51-1.13,1.13-1.13s1.13.51,1.13,1.13c0,4.08-2.67,7.86-7.52,10.66-4.78,2.76-11.06,4.14-17.35,4.14Z"/>
      <g>
        <path class="cls-1" d="M40.4,71.71c-.62,0-1.13-.51-1.13-1.13v-9.13c0-.63.51-1.13,1.13-1.13s1.13.51,1.13,1.13v9.13c0,.62-.51,1.13-1.13,1.13Z"/>
        <path class="cls-1" d="M87.87,71.71c-.62,0-1.13-.51-1.13-1.13v-9.13c0-.63.51-1.13,1.13-1.13s1.13.51,1.13,1.13v9.13c0,.62-.51,1.13-1.13,1.13Z"/>
      </g>
    </g>
  </g>
  <g>
    <path class="cls-1" d="M35.22,30.59c-6.28,0-12.56-1.38-17.35-4.14-4.85-2.8-7.52-6.58-7.52-10.66s2.67-7.86,7.52-10.66C27.44-.38,43-.38,52.56,5.14h0c4.85,2.8,7.52,6.58,7.52,10.66s-2.67,7.86-7.52,10.66c-4.78,2.76-11.06,4.14-17.35,4.14ZM35.22,3.23c-5.87,0-11.75,1.29-16.22,3.87-4.12,2.37-6.38,5.46-6.38,8.7s2.27,6.32,6.38,8.7c8.94,5.16,23.49,5.16,32.43,0,4.12-2.37,6.38-5.46,6.38-8.7s-2.27-6.32-6.38-8.7c-4.47-2.58-10.34-3.87-16.22-3.87Z"/>
    <g>
      <path class="cls-1" d="M35.22,39.72c-6.28,0-12.56-1.38-17.35-4.14-5-2.88-7.67-6.79-7.51-11,.02-.62.54-1.13,1.17-1.09.62.02,1.11.55,1.09,1.17-.13,3.33,2.14,6.51,6.38,8.95,8.94,5.16,23.49,5.16,32.43,0,4.12-2.37,6.38-5.46,6.38-8.7,0-.63.51-1.13,1.13-1.13s1.13.51,1.13,1.13c0,4.08-2.67,7.86-7.52,10.66-4.78,2.76-11.06,4.14-17.35,4.14Z"/>
      <g>
        <path class="cls-1" d="M11.49,26.22c-.62,0-1.13-.51-1.13-1.13v-9.13c0-.63.51-1.13,1.13-1.13s1.13.51,1.13,1.13v9.13c0,.63-.51,1.13-1.13,1.13Z"/>
        <path class="cls-1" d="M58.95,26.22c-.62,0-1.13-.51-1.13-1.13v-9.13c0-.63.51-1.13,1.13-1.13s1.13.51,1.13,1.13v9.13c0,.63-.51,1.13-1.13,1.13Z"/>
      </g>
    </g>
    <g>
      <g>
        <path class="cls-1" d="M35.25,48.87c-6.42,0-12.7-1.46-17.38-4.16-5-2.88-7.67-6.79-7.51-11,.02-.62.54-1.13,1.17-1.09.62.02,1.11.55,1.09,1.17-.13,3.33,2.14,6.51,6.38,8.95,5.87,3.38,14.52,4.67,22.56,3.35.63-.1,1.2.32,1.3.93.1.62-.32,1.2-.93,1.3-2.2.36-4.45.54-6.67.54Z"/>
        <path class="cls-1" d="M57.32,40.18c-.22,0-.44-.06-.63-.19-.52-.35-.65-1.05-.3-1.57.95-1.4,1.43-2.87,1.43-4.35,0-.63.51-1.13,1.13-1.13s1.13.51,1.13,1.13c0,1.95-.61,3.84-1.82,5.62-.22.32-.57.5-.94.5Z"/>
      </g>
      <g>
        <path class="cls-1" d="M11.49,35.35c-.62,0-1.13-.51-1.13-1.13v-9.13c0-.63.51-1.13,1.13-1.13s1.13.51,1.13,1.13v9.13c0,.63-.51,1.13-1.13,1.13Z"/>
        <path class="cls-1" d="M58.95,35.35c-.62,0-1.13-.51-1.13-1.13v-9.13c0-.63.51-1.13,1.13-1.13s1.13.51,1.13,1.13v9.13c0,.63-.51,1.13-1.13,1.13Z"/>
      </g>
    </g>
    <g>
      <path class="cls-1" d="M35.19,57.25c-6.42,0-12.64-1.46-17.32-4.16-5-2.88-7.67-6.79-7.51-11,.02-.62.54-1.14,1.17-1.09.62.02,1.11.55,1.09,1.17-.13,3.33,2.14,6.51,6.38,8.95,5.57,3.21,13.52,4.53,21.26,3.54.62-.08,1.19.36,1.27.98.08.62-.36,1.19-.98,1.27-1.78.23-3.58.34-5.36.34Z"/>
      <g>
        <path class="cls-1" d="M11.49,43.72c-.62,0-1.13-.51-1.13-1.13v-9.13c0-.63.51-1.13,1.13-1.13s1.13.51,1.13,1.13v9.13c0,.63-.51,1.13-1.13,1.13Z"/>
        <path class="cls-1" d="M58.95,39.93c-.62,0-1.13-.51-1.13-1.13v-5.34c0-.63.51-1.13,1.13-1.13s1.13.51,1.13,1.13v5.34c0,.63-.51,1.13-1.13,1.13Z"/>
      </g>
    </g>
    <g>
      <path class="cls-1" d="M35.19,65.62c-6.42,0-12.64-1.46-17.32-4.16-5-2.88-7.67-6.79-7.51-11,.02-.62.54-1.14,1.17-1.09.62.02,1.11.55,1.09,1.17-.13,3.33,2.14,6.51,6.38,8.95,5.57,3.21,13.52,4.53,21.26,3.54.62-.08,1.19.36,1.27.98.08.62-.36,1.19-.98,1.27-1.78.23-3.58.34-5.36.34Z"/>
      <path class="cls-1" d="M11.49,52.09c-.62,0-1.13-.51-1.13-1.13v-9.13c0-.63.51-1.13,1.13-1.13s1.13.51,1.13,1.13v9.13c0,.62-.51,1.13-1.13,1.13Z"/>
    </g>
    <g>
      <path class="cls-1" d="M35.19,73.99c-6.42,0-12.64-1.46-17.32-4.16-5-2.88-7.67-6.79-7.51-11,.02-.62.54-1.14,1.17-1.09.62.02,1.11.55,1.09,1.17-.13,3.33,2.14,6.51,6.38,8.95,5.57,3.21,13.52,4.53,21.26,3.54.62-.08,1.19.36,1.27.98.08.62-.36,1.19-.98,1.27-1.78.23-3.58.34-5.36.34Z"/>
      <path class="cls-1" d="M11.49,60.47c-.62,0-1.13-.51-1.13-1.13v-9.13c0-.62.51-1.13,1.13-1.13s1.13.51,1.13,1.13v9.13c0,.63-.51,1.13-1.13,1.13Z"/>
    </g>
  </g>
</svg>