<?xml version="1.0" encoding="UTF-8"?>
<svg id="Layer_1" data-name="Layer 1" xmlns="http://www.w3.org/2000/svg" version="1.1" viewBox="0 0 15 15">
  <defs>
    <style>
      .cls-1 {
        stroke-width: 0px;
      }

      .cls-1, .cls-2 {
        fill: #044b59;
        fill-rule: evenodd;
      }

      .cls-2 {
        stroke: #044b59;
        stroke-miterlimit: 10;
        stroke-width: .5px;
      }
    </style>
  </defs>
  <path class="cls-1" d="M3.7,0h0c-.4,0-.7,0-.9,0-.3,0-.5,0-.8.2-.2.1-.4.3-.6.6-.1.2-.2.5-.2.8,0,.3,0,.6,0,.9h0v9.9h0c0,.4,0,.7,0,.9,0,.3,0,.5.2.8.1.2.3.4.6.6.2.1.5.2.8.2.3,0,.6,0,.9,0h7.7c.4,0,.7,0,.9,0,.3,0,.5,0,.8-.2.2-.1.4-.3.6-.6.1-.2.2-.5.2-.8,0-.3,0-.6,0-.9h0V2.5h0c0-.4,0-.7,0-.9,0-.3,0-.5-.2-.8-.1-.2-.3-.4-.6-.6-.2-.1-.5-.2-.8-.2C12,0,11.7,0,11.3,0H3.7ZM2.6,1.2s0,0,.3,0c.2,0,.4,0,.8,0h7.6c.4,0,.6,0,.8,0,.2,0,.2,0,.3,0,0,0,.1.1.2.2,0,0,0,0,0,.3,0,.2,0,.4,0,.8v9.9c0,.4,0,.6,0,.8,0,.2,0,.2,0,.3,0,0-.1.1-.2.2,0,0,0,0-.3,0-.2,0-.4,0-.8,0H3.7c-.4,0-.6,0-.8,0-.2,0-.2,0-.3,0,0,0-.1-.1-.2-.2,0,0,0,0,0-.3,0-.2,0-.4,0-.8V2.5c0-.4,0-.6,0-.8,0-.2,0-.2,0-.3,0,0,.1-.1.2-.2Z"/>
  <path class="cls-2" d="M11.2,5c.2,0,.3.1.3.3v6.4c0,.1-.1.3-.3.3s-.3-.1-.3-.3v-6.4c0-.1.1-.3.3-.3ZM8.9,2.9c.2,0,.3.2.3.4v8.2c0,.2-.1.4-.3.4s-.3-.2-.3-.4V3.3c0-.2.1-.4.3-.4ZM3.8,5c.2,0,.3.2.3.3v6.3c0,.2-.1.3-.3.3s-.3-.2-.3-.3v-6.3c0-.2.1-.3.3-.3ZM6.2,6.4c.2,0,.3.1.3.3v4.9c0,.2-.1.3-.3.3s-.3-.1-.3-.3v-4.9c0-.2.1-.3.3-.3Z"/>
</svg>